<svg width="100" height="100" viewBox="0 0 100 100" fill="none" xmlns="http://www.w3.org/2000/svg">
<g clip-path="url(#clip0_862_212)">
<path d="M65.6035 28.3518V31.7112" stroke="#BDA687" stroke-miterlimit="10" stroke-linecap="square" stroke-linejoin="bevel"/>
<path d="M67.2826 30.0312H63.9238" stroke="#BDA687" stroke-miterlimit="10" stroke-linecap="square" stroke-linejoin="bevel"/>
<path d="M56.5195 14.7305V18.0893" stroke="#BDA687" stroke-miterlimit="10" stroke-linecap="square" stroke-linejoin="bevel"/>
<path d="M58.1986 16.4099H54.8398" stroke="#BDA687" stroke-miterlimit="10" stroke-linecap="square" stroke-linejoin="bevel"/>
<path d="M41.7119 52.9579C41.7119 52.9579 44.1719 53.107 44.1719 56.387H44.255C44.255 53.1076 46.7149 52.9579 46.7149 52.9579V52.8737C46.7149 52.8737 44.255 52.7246 44.255 49.4446H44.1719C44.1719 52.724 41.7119 52.8737 41.7119 52.8737V52.9579Z" fill="#FDFDF7" stroke="#BDA687" stroke-miterlimit="10" stroke-linecap="square" stroke-linejoin="bevel"/>
<path d="M36.1946 45.7421C36.1946 46.0463 35.9479 46.293 35.6437 46.293C35.3394 46.293 35.0928 46.0463 35.0928 45.7421C35.0928 45.4378 35.3394 45.1912 35.6437 45.1912C35.9479 45.1912 36.1946 45.4378 36.1946 45.7421Z" fill="#BDA687"/>
<path d="M57.2093 36.0203C57.2093 36.0203 57.4214 36.1706 57.8353 36.196C63.0396 36.519 68.3972 39.7512 70.1396 45.7415C74.6238 61.1621 60.242 60.3336 59.4238 70.5294C58.6687 79.9409 66.7474 80.5827 66.7474 87.1427L40.7705 87.2469C40.7705 87.2469 37.5989 84.8615 37.7274 78.0166C38.0862 58.9281 67.2814 56.9548 51.7778 41.4512L57.2093 36.0203Z" fill="#FDFDF7" stroke="#BDA687" stroke-miterlimit="10" stroke-linecap="square" stroke-linejoin="bevel"/>
<path d="M65.2944 45.7419C70.3114 60.9413 54.5441 60.3341 53.7265 70.5298C52.972 79.9413 61.0501 80.5832 61.0501 87.1432" stroke="#BDA687" stroke-miterlimit="10" stroke-linecap="square" stroke-linejoin="bevel"/>
<path d="M45.4936 87.0821C44.8881 86.5318 42.5269 84.0057 42.6396 78.0166C42.9984 58.9281 72.1936 56.9548 56.6899 41.4512" stroke="#BDA687" stroke-miterlimit="10" stroke-linecap="square" stroke-linejoin="bevel"/>
<path d="M52.4314 31.9044C53.7696 33.2426 55.9392 33.2426 57.2768 31.9044C58.615 30.5662 58.615 28.3965 57.2768 27.0583C55.9386 25.7201 53.7689 25.7201 52.4314 27.0583C51.0932 28.3971 51.0932 30.5668 52.4314 31.9044Z" fill="#FDFDF7" stroke="#BDA687" stroke-width="3" stroke-miterlimit="10" stroke-linecap="square" stroke-linejoin="bevel"/>
<path d="M45.2401 42.5232C47.1326 42.5232 48.6668 40.9891 48.6668 39.0966C48.6668 37.2041 47.1326 35.6699 45.2401 35.6699C43.3476 35.6699 41.8135 37.2041 41.8135 39.0966C41.8135 40.9891 43.3476 42.5232 45.2401 42.5232Z" fill="#FDFDF7" stroke="#BDA687" stroke-width="3" stroke-miterlimit="10" stroke-linecap="square" stroke-linejoin="bevel"/>
<path d="M44.6722 37.2644C48.9074 38.6759 50.3189 42.9111 50.3189 42.9111L58.6692 34.5608C58.6692 34.5608 54.434 33.1493 53.0225 28.9141C51.611 24.679 52.7201 20.1414 48.5856 15.9062C46.1486 13.4099 43.2383 13.1735 41.2601 13.4002L35.4201 19.2402L34.9977 19.6626L29.1577 25.5026C28.931 27.4814 29.168 30.3911 31.6643 32.8281C35.8995 36.962 40.4371 35.8523 44.6722 37.2644Z" fill="#FDFDF7" stroke="#BDA687" stroke-miterlimit="10" stroke-linecap="square" stroke-linejoin="bevel"/>
<path d="M48.344 16.1475C48.344 16.1475 41.7756 26.239 31.9053 32.5868" stroke="#BDA687" stroke-miterlimit="10" stroke-linecap="square" stroke-linejoin="bevel"/>
<path d="M50.9088 19.4419C50.9088 19.4419 44.7221 28.9461 35.4258 34.9249" stroke="#BDA687" stroke-miterlimit="10" stroke-linecap="square" stroke-linejoin="bevel"/>
<path d="M29.1635 25.5081C28.7186 25.0632 31.0665 21.9929 34.4083 18.6511C37.7501 15.3093 40.8204 12.9608 41.2653 13.4063C41.7101 13.8511 39.3623 16.9214 36.0204 20.2632C32.6786 23.6044 29.6083 25.9529 29.1635 25.5081Z" fill="#BDA687" stroke="#BDA687" stroke-miterlimit="10" stroke-linecap="square" stroke-linejoin="bevel"/>
<path d="M50.3161 42.9081C49.8489 42.4408 51.3398 40.1929 53.6459 37.8869C55.9519 35.5808 58.1998 34.0905 58.6671 34.5572C59.1343 35.0245 57.6434 37.2723 55.3374 39.5784C53.0313 41.8845 50.7834 43.3754 50.3161 42.9081Z" fill="#BDA687" stroke="#BDA687" stroke-miterlimit="10" stroke-linecap="square" stroke-linejoin="bevel"/>
<path d="M51.9313 65.396C48.7088 69.6742 48.1385 73.0608 48.887 76.0196C50.024 80.513 54.0561 82.2881 54.0561 87.2469" stroke="#BDA687" stroke-miterlimit="10" stroke-linecap="square" stroke-linejoin="bevel"/>
</g>
<defs>
<clipPath id="clip0_862_212">
<path d="M0 50C0 22.3858 22.3858 0 50 0V0C77.6142 0 100 22.3858 100 50V50C100 77.6142 77.6142 100 50 100V100C22.3858 100 0 77.6142 0 50V50Z" fill="white"/>
</clipPath>
</defs>
</svg>
