<svg width="100" height="100" viewBox="0 0 100 100" fill="none" xmlns="http://www.w3.org/2000/svg">
<path d="M59.5547 45.2285V48.5879" stroke="#BDA687" stroke-miterlimit="10" stroke-linecap="square" stroke-linejoin="bevel"/>
<path d="M61.2344 46.9084H57.875" stroke="#BDA687" stroke-miterlimit="10" stroke-linecap="square" stroke-linejoin="bevel"/>
<path d="M58.5879 31.0061C58.5879 31.0061 61.0479 31.1552 61.0479 34.4352H61.1309C61.1309 31.1558 63.5909 31.0061 63.5909 31.0061V30.9219C63.5909 30.9219 61.1309 30.7728 61.1309 27.4934H61.0479C61.0479 30.7728 58.5879 30.9219 58.5879 30.9219V31.0061Z" fill="#FDFDF7" stroke="#BDA687" stroke-miterlimit="10" stroke-linecap="square" stroke-linejoin="bevel"/>
<path d="M33.2637 37.1394V40.4988" stroke="#BDA687" stroke-miterlimit="10" stroke-linecap="square" stroke-linejoin="bevel"/>
<path d="M34.9434 38.8193H31.584" stroke="#BDA687" stroke-miterlimit="10" stroke-linecap="square" stroke-linejoin="bevel"/>
<path d="M24.178 52.2745C24.178 52.5788 23.9313 52.8255 23.6271 52.8255C23.3228 52.8255 23.0762 52.5788 23.0762 52.2745C23.0762 51.9703 23.3228 51.7236 23.6271 51.7236C23.9319 51.7236 24.178 51.9703 24.178 52.2745Z" fill="#BDA687"/>
<path d="M43.3998 45.2031C43.3998 45.2031 48.4586 48.3486 49.0689 52.8383C49.0689 52.8383 45.7174 49.0777 42.2998 46.4965C42.2998 46.4965 42.7125 45.7189 43.3998 45.2031Z" fill="#FDFDF7" stroke="#BDA687" stroke-miterlimit="10" stroke-linecap="square" stroke-linejoin="bevel"/>
<path d="M43.3991 45.2031C43.3991 45.2031 41.1463 47.4316 41.4318 49.3552C40.3894 48.7589 39.7451 48.4146 39.7451 48.4146C39.7451 48.4146 40.1924 45.214 43.3991 45.2031Z" fill="#FDFDF7" stroke="#BDA687" stroke-miterlimit="10" stroke-linecap="square" stroke-linejoin="bevel"/>
<path d="M49.0033 47.7183C49.0033 47.7183 54.0621 50.8637 54.6724 55.3534C54.6724 55.3534 51.3209 51.5928 47.9033 49.0116C47.9033 49.0116 48.316 48.234 49.0033 47.7183Z" fill="#FDFDF7" stroke="#BDA687" stroke-miterlimit="10" stroke-linecap="square" stroke-linejoin="bevel"/>
<path d="M49.0026 47.7183C49.0026 47.7183 46.7499 49.9467 47.0353 51.8704C45.9929 51.274 45.3486 50.9298 45.3486 50.9298C45.3486 50.9298 45.7953 47.7292 49.0026 47.7183Z" fill="#FDFDF7" stroke="#BDA687" stroke-miterlimit="10" stroke-linecap="square" stroke-linejoin="bevel"/>
<path d="M53.6424 50.1982C53.6424 50.1982 58.7012 53.3437 59.3115 57.8334C59.3115 57.8334 55.9599 54.0728 52.543 51.4916C52.543 51.4916 52.9551 50.714 53.6424 50.1982Z" fill="#FDFDF7" stroke="#BDA687" stroke-miterlimit="10" stroke-linecap="square" stroke-linejoin="bevel"/>
<path d="M53.6422 50.1982C53.6422 50.1982 51.3895 52.4267 51.6749 54.3504C50.6325 53.754 49.9883 53.4098 49.9883 53.4098C49.9883 53.4098 50.4349 50.2092 53.6422 50.1982Z" fill="#FDFDF7" stroke="#BDA687" stroke-miterlimit="10" stroke-linecap="square" stroke-linejoin="bevel"/>
<path d="M58.5342 71.157C58.5342 75.0649 59.0408 76.5401 64.3645 78.417C69.6875 80.294 73.8699 76.3031 73.8699 76.3031L66.2021 74.6152L72.9827 73.4134C72.9827 73.4134 69.1584 70.4946 64.7402 69.4867C62.5469 68.9867 60.2621 69.6086 58.5342 71.157Z" fill="#BDA687"/>
<path d="M31.9375 22.8406C31.9375 22.8406 32.5102 21.2122 34.9605 21.2122C37.4108 21.2122 37.4951 22.9691 37.4951 26.9218C37.4951 30.8909 38.6781 31.9461 38.6781 31.9461C38.6781 31.9461 31.9375 30.8909 31.9375 25.18V22.8406Z" fill="#BDA687"/>
<path d="M33.4059 48.7921C33.9137 48.4739 34.4962 48.2643 35.1295 48.1346C31.6531 45.5818 24.1447 39.3697 24.1447 33.3218C24.1447 25.4539 31.9374 25.1794 31.9374 25.1794V22.84C31.9374 22.84 21.6944 20.0188 19.5616 31.8449C17.841 41.3836 29.8271 51.9818 32.8731 54.5C31.6368 52.1461 31.4556 50.0139 33.4059 48.7921Z" fill="#FDFDF7" stroke="#BDA687" stroke-miterlimit="10" stroke-linecap="square" stroke-linejoin="bevel"/>
<path d="M56.856 71.157L54.8535 73.7073C55.7668 75.4321 58.1135 75.0467 58.9535 74.6115C58.605 73.6934 58.5341 72.5897 58.5341 71.157H56.856Z" fill="#BDA687"/>
<path d="M51.1016 68.9975L51.1004 68.9994C51.1004 68.9994 49.1549 72.6981 54.1404 74.6157L57.5204 70.3115L55.381 68.9994L55.3779 68.9963C54.664 69.1333 53.8786 69.2151 53.0016 69.2115C52.3592 69.2084 51.7234 69.126 51.1016 68.9975Z" fill="#BDA687"/>
<path d="M64.9932 60.9886C66.7253 57.5632 67.8235 56.5347 73.3217 57.6704C78.8198 58.8062 80.7174 64.4898 80.7174 64.4898L73.2477 61.9632L78.6592 66.5595C78.6592 66.5595 74.0132 67.1201 69.6932 65.6953C67.5489 64.988 65.8216 63.2492 64.9932 60.9886Z" fill="#BDA687"/>
<path d="M63.5213 60.1116L62.8965 56.8298C64.4619 55.7953 66.3474 57.3589 66.8916 58.1789C66.1789 58.8019 65.628 59.7322 64.9929 60.988L63.5213 60.1116Z" fill="#BDA687"/>
<path d="M57.5202 58.9988L57.5196 58.997C57.5196 58.997 57.4535 54.7382 62.6735 55.6619L63.7287 61.2007L61.2717 61.2328L61.2675 61.234C60.702 60.7407 60.0505 60.2588 59.2796 59.8037C58.7166 59.4704 58.122 59.211 57.5202 58.9988Z" fill="#BDA687"/>
<path d="M54.65 55.0594C54.65 55.0594 39.2809 45.1134 33.4064 48.7928C27.5318 52.4721 40.9336 64.3964 44.5561 65.8528C44.5561 65.8528 45.2645 56.0455 54.65 55.0594Z" fill="#FDFDF7" stroke="#BDA687" stroke-miterlimit="10" stroke-linecap="square" stroke-linejoin="bevel"/>
<path d="M54.6506 55.0588C45.2651 56.0455 44.5566 65.8522 44.5566 65.8522C44.5566 65.8522 48.6985 69.194 53.0015 69.2116C56.7178 69.2267 58.9051 67.7976 60.1342 66.4801C61.3669 65.1588 61.9748 63.317 61.0269 60.891C59.8021 57.7552 54.6506 55.0588 54.6506 55.0588Z" fill="#FDFDF7" stroke="#BDA687" stroke-miterlimit="10" stroke-linecap="square" stroke-linejoin="bevel"/>
<path d="M25.3465 28.757C25.4865 28.5382 25.6374 28.3352 25.7938 28.1425C24.0744 27.1067 23.4253 25.7025 23.1913 24.6794C22.9938 24.8491 22.8004 25.0316 22.6113 25.2279C22.9428 26.3449 23.6956 27.7188 25.3465 28.757Z" fill="#BDA687"/>
<path d="M24.1663 33.886C24.1523 33.6981 24.1451 33.5103 24.1451 33.3224C24.1451 33.2218 24.1517 33.1278 24.1542 33.0303C22.3323 33.9963 20.5972 33.5733 19.4263 33.0103C19.4081 33.2806 19.3978 33.5515 19.3996 33.8224C20.113 34.129 20.982 34.3775 21.936 34.3775C22.6439 34.3769 23.3978 34.2363 24.1663 33.886Z" fill="#BDA687"/>
<path d="M26.4724 39.6581C26.3251 39.4417 26.1814 39.2248 26.0445 39.0054C24.6099 40.6363 22.5742 40.8926 21.293 40.8593C21.4233 41.1199 21.559 41.3787 21.699 41.6357C23.0869 41.6042 25.0233 41.2296 26.4724 39.6581Z" fill="#BDA687"/>
<path d="M30.3462 44.1315C30.1577 43.9503 29.9698 43.7666 29.7825 43.5793C28.8504 45.8654 26.6819 46.8484 25.5498 47.2133C25.7268 47.4266 25.9043 47.6363 26.0819 47.8436C27.3486 47.3781 29.3492 46.3266 30.3462 44.1315Z" fill="#BDA687"/>
<path d="M20.124 65.4686C20.124 65.4686 25.4143 59.4819 29.5725 57.4268C27.4034 57.5825 25.7931 57.8328 25.7931 57.8328C25.7931 57.8328 20.7343 60.9789 20.124 65.4686Z" fill="#FDFDF7" stroke="#BDA687" stroke-miterlimit="10" stroke-linecap="square" stroke-linejoin="bevel"/>
<path d="M38.2037 58.4836C38.2037 58.4836 32.1164 58.84 29.8389 62.3345C29.8389 62.3345 36.3074 59.6885 40.6128 59.8861L38.2037 58.4836Z" fill="#FDFDF7" stroke="#BDA687" stroke-miterlimit="10" stroke-linecap="square" stroke-linejoin="bevel"/>
<path d="M25.9099 70.542C25.9099 70.542 29.7717 63.9347 33.2632 61.1929C31.2844 61.7765 29.839 62.3341 29.839 62.3341C29.839 62.3341 25.7026 66.2674 25.9099 70.542Z" fill="#FDFDF7" stroke="#BDA687" stroke-miterlimit="10" stroke-linecap="square" stroke-linejoin="bevel"/>
<path d="M41.5545 60.8728C41.5545 60.8728 35.5436 62.1431 33.6182 65.8782C33.6182 65.8782 39.6388 62.2437 43.9394 61.9479L41.5545 60.8728Z" fill="#FDFDF7" stroke="#BDA687" stroke-miterlimit="10" stroke-linecap="square" stroke-linejoin="bevel"/>
<path d="M30.5073 74.4902C30.5073 74.4902 33.7067 67.4781 36.9127 64.3521C35.0018 65.1587 33.6182 65.8787 33.6182 65.8787C33.6182 65.8787 29.886 70.263 30.5073 74.4902Z" fill="#FDFDF7" stroke="#BDA687" stroke-miterlimit="10" stroke-linecap="square" stroke-linejoin="bevel"/>
<path d="M34.6606 55.6649C34.6606 55.6649 28.8358 54.7207 25.7939 57.8334C25.7939 57.8334 32.6606 56.4776 37.097 57.6637L34.6606 55.6649Z" fill="#FDFDF7" stroke="#BDA687" stroke-miterlimit="10" stroke-linecap="square" stroke-linejoin="bevel"/>
<path d="M58.2529 62.7431C59.1935 61.414 60.4153 60.4158 61.7729 59.7898C58.0898 58.8855 58.2329 62.4304 58.2529 62.7431Z" fill="#BDA687"/>
<path d="M56.633 63.6951C55.1064 63.9406 53.7088 64.6139 52.5439 65.597C53.6088 61.663 56.3912 63.5242 56.633 63.6951Z" fill="#BDA687"/>
</svg>
