<svg width="100" height="100" viewBox="0 0 100 100" fill="none" xmlns="http://www.w3.org/2000/svg">
<g clip-path="url(#clip0_862_203)">
<path d="M72.3926 29.0654V32.4248" stroke="#BDA687" stroke-miterlimit="10" stroke-linecap="square" stroke-linejoin="bevel"/>
<path d="M74.0723 30.7455H70.7129" stroke="#BDA687" stroke-miterlimit="10" stroke-linecap="square" stroke-linejoin="bevel"/>
<path d="M32.8174 35.8806C32.8174 35.8806 35.2774 36.0297 35.2774 39.3091H35.3604C35.3604 36.0297 37.8204 35.8806 37.8204 35.8806V35.7964C37.8204 35.7964 35.3604 35.6473 35.3604 32.3673H35.2774C35.2774 35.6467 32.8174 35.7964 32.8174 35.7964V35.8806Z" fill="#FDFDF7" stroke="#BDA687" stroke-miterlimit="10" stroke-linecap="square" stroke-linejoin="bevel"/>
<path d="M58.1748 21.8182V25.177" stroke="#BDA687" stroke-miterlimit="10" stroke-linecap="square" stroke-linejoin="bevel"/>
<path d="M59.8539 23.4977H56.4951" stroke="#BDA687" stroke-miterlimit="10" stroke-linecap="square" stroke-linejoin="bevel"/>
<path d="M72.5684 52.4946C72.5684 52.4946 75.5029 52.4346 77.5617 53.277C79.6211 54.1194 82.349 59.717 86.3132 57.3697C86.3132 57.3697 83.0187 61.1013 78.8999 58.2728C74.7811 55.4443 71.7441 56.5273 71.7441 56.5273" fill="#BDA687"/>
<path d="M72.5684 52.4946C72.5684 52.4946 75.5029 52.4346 77.5617 53.277C79.6211 54.1194 82.349 59.717 86.3132 57.3697C86.3132 57.3697 83.0187 61.1013 78.8999 58.2728C74.7811 55.4443 71.7441 56.5273 71.7441 56.5273" stroke="#BDA687" stroke-miterlimit="10" stroke-linecap="square" stroke-linejoin="bevel"/>
<path d="M45.0265 66.9685C44.8338 67.4007 44.6144 67.8419 44.3574 68.2928L43.9453 73.4691C43.9453 73.4691 45.7986 74.6728 48.6817 73.4691L47.4459 69.1358C47.4459 69.1358 47.652 68.0473 48.1477 66.6958C47.7617 66.7491 47.3677 66.7976 46.9623 66.837C46.289 66.9013 45.6441 66.9443 45.0265 66.9685Z" fill="#BDA687"/>
<path d="M75.4655 56.9146C73.8582 59.0812 71.3461 59.5631 67.9479 60.8867C64.5503 62.2109 63.4176 68.2297 63.4176 68.2297L64.6527 72.5631C61.7697 73.7667 59.917 72.5631 59.917 72.5631L60.3291 67.3867C63.4176 61.9697 61.5649 57.7564 61.5649 57.7564C61.5649 57.7564 62.6976 56.914 64.3449 54.7467" fill="#BDA687"/>
<path d="M26.7366 47.0903C23.4014 48.3091 19.7699 49.1722 17.3226 49.6794C15.3741 50.0837 13.659 51.42 12.5808 53.36C11.5535 55.2079 10.4535 57.4055 10.3117 58.5691C10.0372 60.8164 16.1396 56.237 16.9632 57.7618L17.9184 57.1243C17.9184 57.1243 17.5875 54.3952 13.2632 56.7231L14.1354 55.08C15.1838 53.1049 16.8875 51.7328 18.8384 51.2806C20.596 50.8734 22.8293 50.4206 24.7947 50.2225C28.7748 49.8225 26.7366 47.0903 26.7366 47.0903Z" fill="#FDFDF7" stroke="#BDA687" stroke-miterlimit="10" stroke-linecap="square" stroke-linejoin="bevel"/>
<path d="M17.5321 56.5801C17.5321 56.5801 16.6697 57.3673 17.18 59.1619C17.6903 60.9564 17.637 62.2055 17.2558 62.9825C17.2558 62.9825 18.0691 62.8195 18.2249 61.6692C18.2273 61.6516 18.2297 61.6334 18.2315 61.6152C18.3685 60.4158 18.4552 62.2177 18.4552 62.2177C18.4552 62.2177 19.1606 61.388 18.8697 59.4073C18.5788 57.4273 17.5321 56.5801 17.5321 56.5801Z" fill="#BDA687" stroke="#BDA687" stroke-miterlimit="10"/>
<path d="M50.7835 66.1982C49.6131 66.4776 48.3471 66.7006 46.9622 66.8358C36.0125 67.9036 32.5216 63.1043 32.5216 63.1043C30.9144 65.2709 27.5392 65.7527 24.1416 67.077C20.7441 68.4012 19.6113 74.42 19.6113 74.42L20.8471 78.754C17.9641 79.9576 16.1113 78.754 16.1113 78.754L16.5235 73.5776C19.6119 68.1606 17.7592 63.9473 17.7592 63.9473C17.7592 63.9473 18.8919 63.1049 20.5392 60.9382C22.1865 58.7715 21.5689 53.234 25.0695 48.7412C28.5701 44.2485 35.2622 44.4467 35.2622 44.4467C40.9774 42.28 46.835 37.5709 50.6065 34.1509C53.3132 31.6958 57.2871 31.2691 60.4434 33.1103C65.8101 36.2412 73.6119 41.8243 77.815 49.6503C77.815 49.6503 76.1738 55.9988 75.6683 57.3273C75.6683 57.3273 72.121 60.7576 71.658 62.7443C71.658 62.7443 69.0841 63.6473 67.1792 61.7812C67.1792 61.7812 66.8186 60.6976 67.4883 58.9521C67.4883 58.9521 66.4586 56.5449 66.7677 53.9564L65.3265 57.6879L65.5325 62.6237C65.5325 62.6237 62.8041 62.8043 58.8404 65.5727C58.8404 65.5727 57.5538 66.2346 55.4944 65.1515L54.6471 64.9533C53.7362 65.3376 52.7253 65.6885 51.621 65.9897L50.7835 66.1982Z" fill="#FDFDF7" stroke="#BDA687" stroke-miterlimit="10" stroke-linecap="square" stroke-linejoin="bevel"/>
<path d="M50.7835 66.1982C49.6131 66.4776 48.3471 66.7006 46.9622 66.8358C36.0125 67.9036 32.5216 63.1043 32.5216 63.1043C30.9144 65.2709 27.5392 65.7527 24.1416 67.077C20.7441 68.4012 19.6113 74.42 19.6113 74.42L20.8471 78.754C17.9641 79.9576 16.1113 78.754 16.1113 78.754L16.5235 73.5776C19.6119 68.1606 17.7592 63.9473 17.7592 63.9473C17.7592 63.9473 18.8919 63.1049 20.5392 60.9382C22.1865 58.7715 21.5689 53.234 25.0695 48.7412C28.5701 44.2485 35.2622 44.4467 35.2622 44.4467C40.9774 42.28 46.835 37.5709 50.6065 34.1509C53.3132 31.6958 57.2871 31.2691 60.4434 33.1103C65.8101 36.2412 73.6119 41.8243 77.815 49.6503C77.815 49.6503 76.1738 55.9988 75.6683 57.3273C75.6683 57.3273 72.121 60.7576 71.658 62.7443C71.658 62.7443 69.0841 63.6473 67.1792 61.7812C67.1792 61.7812 66.8186 60.6976 67.4883 58.9521C67.4883 58.9521 66.4586 56.5449 66.7677 53.9564L65.3265 57.6879L65.5325 62.6237C65.5325 62.6237 62.8041 62.8043 58.8404 65.5727C58.8404 65.5727 57.5538 66.2346 55.4944 65.1515L54.6471 64.9533C53.7362 65.3376 52.7253 65.6885 51.621 65.9897L50.7835 66.1982Z" fill="#FDFDF7" stroke="#BDA687" stroke-miterlimit="10" stroke-linecap="square" stroke-linejoin="bevel"/>
<path d="M69.1864 50.2236C69.1864 50.2236 68.0924 50.6448 66.7088 51.4273C66.7088 51.4273 65.7064 53.3582 65.6973 56.7236L66.7664 53.9552C67.0755 51.7285 69.1864 50.2236 69.1864 50.2236Z" fill="#BDA687" stroke="#BDA687" stroke-miterlimit="10" stroke-linecap="square" stroke-linejoin="bevel"/>
<path d="M75.6205 49.4412C75.6205 49.4412 78.5551 49.3812 80.6138 50.2237C82.6732 51.0661 85.4017 56.6637 89.3654 54.3164C89.3654 54.3164 86.0708 58.0479 81.9526 55.2194C77.8344 52.3903 74.7969 53.474 74.7969 53.474" fill="#FDFDF7"/>
<path d="M75.6205 49.4412C75.6205 49.4412 78.5551 49.3812 80.6138 50.2237C82.6732 51.0661 85.4017 56.6637 89.3654 54.3164C89.3654 54.3164 86.0708 58.0479 81.9526 55.2194C77.8344 52.3903 74.7969 53.474 74.7969 53.474" stroke="#BDA687" stroke-miterlimit="10" stroke-linecap="square" stroke-linejoin="bevel"/>
<path d="M73.0215 54.5388C73.0215 54.5388 73.5245 55.9503 73.6918 57.1897C73.6918 57.1897 74.953 55.4909 73.0215 54.5388Z" fill="#BDA687"/>
<path d="M65.5313 62.126L65.3889 57.3672C65.3889 57.3672 59.918 50.2091 59.918 47.3569" fill="#FDFDF7"/>
<path d="M65.5313 62.126L65.3889 57.3672C65.3889 57.3672 59.918 50.2091 59.918 47.3569" stroke="#BDA687" stroke-miterlimit="10" stroke-linecap="square" stroke-linejoin="bevel"/>
<path d="M35.1588 55.4C34.8497 60.0346 32.5225 63.1043 32.5225 63.1043C32.5225 63.1043 32.8643 63.574 33.6691 64.1867C36.0394 59.0831 35.1588 55.4 35.1588 55.4Z" fill="#BDA687" stroke="#BDA687" stroke-miterlimit="10" stroke-linecap="square" stroke-linejoin="bevel"/>
<path d="M56.0373 61.9406L59.9373 59.7933L61.9967 60.5763C59.3882 57.1254 50.6713 55.8412 50.6713 55.8412C49.3434 50.5194 50.5773 47.9224 51.1561 47.3569C50.5379 47.8721 48.0416 50.4175 50.0785 56.5878C50.0785 56.5878 55.1331 57.2666 58.8398 59.2024L56.1628 60.8169C56.1628 60.8169 54.447 59.2921 52.4561 60.3351L50.7846 66.1981C51.067 66.1309 51.3488 66.063 51.6197 65.9891L53.1422 61.2181C54.5834 60.5763 56.0373 61.9406 56.0373 61.9406Z" fill="#BDA687" stroke="#BDA687" stroke-miterlimit="10" stroke-linecap="square" stroke-linejoin="bevel"/>
<path d="M37.7952 76.9618C37.6364 76.8558 34.414 75.1752 34.414 75.1752L36.7419 73.6406L53.4643 72.0515L67.7013 72.037H70.4886C70.4886 72.037 71.8904 73.8152 71.7316 73.6824C71.5728 73.5503 68.134 75.1903 68.134 75.1903L73.1074 75.0315C73.1074 75.0315 75.0649 78.1533 75.1177 78.3121C75.1704 78.4709 75.1177 79.1061 75.1177 79.1061H24.5273L26.014 77.0473H30.5055L37.7952 76.9618Z" fill="#BDA687"/>
</g>
<defs>
<clipPath id="clip0_862_203">
<path d="M0 50C0 22.3858 22.3858 0 50 0V0C77.6142 0 100 22.3858 100 50V50C100 77.6142 77.6142 100 50 100V100C22.3858 100 0 77.6142 0 50V50Z" fill="white"/>
</clipPath>
</defs>
</svg>
