<svg width="100" height="100" viewBox="0 0 100 100" fill="none" xmlns="http://www.w3.org/2000/svg">
<g clip-path="url(#clip0_862_202)">
<path d="M37.1621 40.3962V43.755" stroke="#BDA687" stroke-miterlimit="10" stroke-linecap="square" stroke-linejoin="bevel"/>
<path d="M38.8418 42.0756H35.4824" stroke="#BDA687" stroke-miterlimit="10" stroke-linecap="square" stroke-linejoin="bevel"/>
<path d="M43.1436 34.6428C43.1436 34.6428 45.6036 34.7919 45.6036 38.0719H45.6866C45.6866 34.7925 48.1466 34.6428 48.1466 34.6428V34.5586C48.1466 34.5586 45.6866 34.4095 45.6866 31.1295H45.6036C45.6036 34.4095 43.1436 34.5586 43.1436 34.5586V34.6428Z" fill="#FDFDF7" stroke="#BDA687" stroke-miterlimit="10" stroke-linecap="square" stroke-linejoin="bevel"/>
<path d="M72.8564 32.9211V36.2805" stroke="#BDA687" stroke-miterlimit="10" stroke-linecap="square" stroke-linejoin="bevel"/>
<path d="M74.5355 34.6012H71.1768" stroke="#BDA687" stroke-miterlimit="10" stroke-linecap="square" stroke-linejoin="bevel"/>
<path d="M37.7131 31.1296C37.7131 31.4339 37.4665 31.6806 37.1622 31.6806C36.858 31.6806 36.6113 31.4339 36.6113 31.1296C36.6113 30.8254 36.858 30.5787 37.1622 30.5787C37.4665 30.5793 37.7131 30.826 37.7131 31.1296Z" fill="#BDA687"/>
<path d="M48.4562 80.926C48.2974 80.8205 44.9059 79.0696 44.9059 79.0696L47.2338 77.5351L57.8114 76.0896L61.1926 76.0751L62.0902 76.0896L65.4702 76.0751C65.4702 76.0751 66.872 77.8533 66.7132 77.7205C66.5544 77.5884 63.1156 79.2284 63.1156 79.2284L68.089 79.0696C68.089 79.0696 70.0465 82.1914 70.0993 82.3496C70.152 82.5084 70.0993 83.1436 70.0993 83.1436H28.875L30.3617 81.0848H34.8532L48.4562 80.926Z" fill="#BDA687"/>
<path d="M60.9311 54.8544C60.9311 54.8544 60.5905 64.1999 59.6172 66.8762L59.8117 72.375L60.6875 73.3968L60.8245 76.0902L64.2057 76.0756L62.342 72.5702L62.0014 66.8284C62.0014 66.8284 64.6293 58.215 65.359 57.1447L65.7699 51.4659L60.9311 54.8544Z" fill="#BDA687"/>
<path d="M32.373 52.9423C32.373 52.9423 30.7834 52.812 29.8143 54.9617C28.8446 57.1114 27.7318 58.2035 26.667 58.5393C26.667 58.5393 27.6767 59.1932 28.8155 58.292C28.8331 58.2781 28.8506 58.2635 28.8688 58.249C30.0288 57.2847 28.5997 59.0223 28.5997 59.0223C28.5997 59.0223 30.0573 58.9581 31.4185 56.855C32.7797 54.7526 32.373 52.9423 32.373 52.9423Z" fill="#BDA687"/>
<path d="M59.48 21.6308C60.5527 23.1841 60.7181 25.2041 59.9509 26.929C59.4139 28.1356 58.7248 29.3647 58.5012 30.8181C58.3885 31.552 58.2509 32.4502 58.1127 33.355C57.6685 36.2593 56.3024 38.9435 54.2157 41.0114C52.7133 42.5005 50.8872 43.6211 48.8794 44.2854L40.7315 46.9829C38.0072 47.8847 35.4982 49.372 33.4788 51.4114C32.5927 52.306 31.8697 53.2417 31.6933 54.035C31.446 55.1478 31.6897 60.452 34.56 62.1551C34.56 62.1551 33.8315 66.3884 31.446 67.8969C31.446 67.8969 32.2242 73.5417 29.5479 78.8454L31.64 81.0835H33.5866L32.4672 78.2611C32.4672 78.2611 33.6351 72.3248 34.0242 71.2054C34.4133 70.086 42.4915 60.5975 42.4915 60.5975C42.4915 60.5975 50.6666 60.6951 56.6521 57.2884C56.6521 57.2884 56.3115 64.1981 55.3381 66.8744L55.5327 72.3732L56.4085 73.3951L56.5454 76.0884L59.9266 76.0738L58.063 72.5684L57.7224 66.8266C57.7224 66.8266 60.3503 58.2132 61.08 57.1429C61.4618 56.5829 62.7757 55.1441 63.9418 53.8993C65.2745 52.4769 66.2866 50.786 66.9127 48.9405L68.1278 45.3593C69.0757 42.5653 69.0963 39.5405 68.1854 36.7344C67.5394 34.746 66.9478 32.6363 67.0648 31.8878C67.3078 30.3308 67.4539 29.7956 67.4539 29.7956L69.6436 28.5793L71.3951 28.4332C71.3951 28.4332 72.8551 27.4114 72.1248 25.1726C72.1248 25.1726 67.1127 23.129 64.7769 20.7932C62.4412 18.4575 59.1812 15.3429 54.3636 17.9708C49.546 20.5987 51.5891 27.1193 55.58 27.1193C59.5709 27.1193 60.4945 21.4744 56.7478 21.4744C56.7478 21.4744 59.0327 23.2072 57.2588 24.7344C55.5066 26.2429 52.2582 22.6975 55.9206 20.6472C57.7133 19.6453 58.7188 20.5284 59.48 21.6308Z" fill="#FDFDF7" stroke="#BDA687" stroke-miterlimit="10" stroke-linecap="square" stroke-linejoin="bevel"/>
<path d="M69.3854 23.8884L67.572 19.4381C67.3629 18.926 66.8199 18.6339 66.2775 18.7424C65.5248 18.8933 65.1266 19.723 65.4799 20.4048C65.9005 21.2151 66.3648 22.0933 66.4199 22.1314C67.3745 22.7951 68.4369 23.3975 69.3854 23.8884Z" fill="#BDA687"/>
<path d="M62.9785 24.5896C62.9785 24.5896 64.2409 24.0635 65.3494 23.8884C65.3494 23.8884 63.83 22.5702 62.9785 24.5896Z" fill="#BDA687"/>
<path d="M43.4086 54.0684C43.7734 58.3017 42.4922 60.5987 42.4922 60.5987C42.4922 60.5987 42.9958 60.6047 43.8431 60.5617C44.2976 57.4065 43.4086 54.0684 43.4086 54.0684Z" fill="#BDA687" stroke="#BDA687" stroke-miterlimit="10" stroke-linecap="square" stroke-linejoin="bevel"/>
<path d="M56.6522 54.3356C56.6522 54.3356 56.3831 56.2368 56.0273 57.6277C56.2376 57.5186 56.4467 57.4065 56.6522 57.2895C56.6522 57.2895 56.7583 55.6495 56.6522 54.3356Z" fill="#BDA687" stroke="#BDA687" stroke-miterlimit="10" stroke-linecap="square" stroke-linejoin="bevel"/>
<path d="M61.875 27.3533C61.875 27.3533 63.5902 29.6527 63.992 30.1999C64.3932 30.7472 67.0659 31.889 67.0659 31.889C67.3089 30.3321 67.455 29.7969 67.455 29.7969C67.455 29.7969 64.6641 29.5072 64.1635 29.3611C63.6635 29.2145 61.875 27.3533 61.875 27.3533Z" fill="#BDA687" stroke="#BDA687" stroke-miterlimit="10" stroke-linecap="square" stroke-linejoin="bevel"/>
<path d="M42.4925 60.5986C42.4925 60.5986 40.6664 62.7435 38.7094 65.1144C38.224 66.1805 37.5234 67.2732 36.5349 67.898C36.5349 67.898 37.3131 73.5429 34.6367 78.8465L36.7288 81.0847H38.6755L37.5561 78.2623C37.5561 78.2623 38.724 72.3259 39.1131 71.2065C39.5022 70.0871 47.5804 60.5986 47.5804 60.5986C47.5804 60.5986 51.8719 60.6483 56.5125 59.3811C56.6101 58.1508 56.6525 57.2896 56.6525 57.2896C50.667 60.6962 42.4925 60.5986 42.4925 60.5986Z" fill="#BDA687"/>
</g>
<defs>
<clipPath id="clip0_862_202">
<path d="M0 50C0 22.3858 22.3858 0 50 0V0C77.6142 0 100 22.3858 100 50V50C100 77.6142 77.6142 100 50 100V100C22.3858 100 0 77.6142 0 50V50Z" fill="white"/>
</clipPath>
</defs>
</svg>
