<svg width="100" height="100" viewBox="0 0 100 100" fill="none" xmlns="http://www.w3.org/2000/svg">
<path d="M26.6035 49.4055V52.7649" stroke="#BDA687" stroke-miterlimit="10" stroke-linecap="square" stroke-linejoin="bevel"/>
<path d="M28.2832 51.0854H24.9238" stroke="#BDA687" stroke-miterlimit="10" stroke-linecap="square" stroke-linejoin="bevel"/>
<path d="M69.6533 56.2777C69.6533 56.2777 72.1133 56.4268 72.1133 59.7068H72.1963C72.1963 56.4274 74.6564 56.2777 74.6564 56.2777V56.1935C74.6564 56.1935 72.1963 56.0444 72.1963 52.7644H72.1133C72.1133 56.0438 69.6533 56.1935 69.6533 56.1935V56.2777Z" fill="#FDFDF7" stroke="#BDA687" stroke-miterlimit="10" stroke-linecap="square" stroke-linejoin="bevel"/>
<path d="M71.1104 15.7231V19.0825" stroke="#BDA687" stroke-miterlimit="10" stroke-linecap="square" stroke-linejoin="bevel"/>
<path d="M72.7895 17.4031H69.4307" stroke="#BDA687" stroke-miterlimit="10" stroke-linecap="square" stroke-linejoin="bevel"/>
<path d="M30.595 58.2972C30.595 58.6015 30.3483 58.8482 30.0441 58.8482C29.7398 58.8482 29.4932 58.6015 29.4932 58.2972C29.4932 57.993 29.7398 57.7463 30.0441 57.7463C30.3483 57.7463 30.595 57.993 30.595 58.2972Z" fill="#BDA687"/>
<path d="M50.668 60.3485C62.5271 60.3485 72.1408 50.7349 72.1408 38.8758C72.1408 27.0167 62.5271 17.4031 50.668 17.4031C38.809 17.4031 29.1953 27.0167 29.1953 38.8758C29.1953 50.7349 38.809 60.3485 50.668 60.3485Z" fill="#BDA687"/>
<mask id="mask0_862_207" style="mask-type:luminance" maskUnits="userSpaceOnUse" x="18" y="18" width="64" height="64">
<path d="M81.4193 55.3263C84.2348 38.1 72.5525 21.8529 55.3262 19.0374C38.0999 16.2219 21.8528 27.9042 19.0373 45.1305C16.2219 62.3569 27.9041 78.6039 45.1304 81.4194C62.3568 84.2349 78.6039 72.5526 81.4193 55.3263Z" fill="white"/>
</mask>
<g mask="url(#mask0_862_207)">
<path d="M38.2613 44.7226C41.3983 38.876 36.1225 40.0881 39.3437 31.9735C40.2043 29.8057 41.8886 28.2275 42.9007 26.6257C43.1164 26.2845 43.4134 25.9232 43.754 25.5608C46.1619 23.0026 50.288 21.1651 54.214 23.5251C56.3661 24.819 57.5837 27.1148 58.1352 29.722C58.7795 32.7717 59.0904 33.4414 63.6449 38.0911C65.8201 40.3111 66.1595 43.7669 64.5716 46.0057C56.6037 57.2432 33.7522 53.1263 38.2613 44.7226Z" fill="#FDFDF7"/>
<path d="M55.9974 43.5571C55.9974 43.5571 56.4168 44.1783 58.7289 44.6729C61.041 45.1668 60.7744 45.6959 60.7744 45.6959C60.7744 45.6959 62.4217 45.1723 62.7804 46.7123C62.7804 46.7123 64.1623 46.2068 64.6095 47.6771C65.0568 49.1474 63.3313 60.2699 62.4362 64.4244C61.541 68.5795 62.9477 78.6789 63.1392 87.6917C63.3307 96.7044 63.9065 122.785 64.8653 128.921C65.8241 135.058 68.4447 146.756 68.4447 146.756C68.4447 146.756 67.1023 146.947 65.8241 146.756C65.8241 146.756 62.6277 147.203 59.8156 147.267C57.0029 147.331 49.2683 146.181 47.9259 146.564C46.5835 146.948 39.9004 147.523 38.0004 146.756C38.0004 146.756 37.8901 137.871 39.1689 131.734C40.4471 125.598 38.5295 104.695 39.4883 99.4535C40.4471 94.2117 39.2326 72.7977 39.2326 72.7977L38.7004 65.1911C37.1453 61.9947 38.5932 58.9268 39.1047 55.2189C39.6162 51.5117 38.7004 48.6353 38.7004 48.6353C39.255 46.7814 41.0865 47.4208 41.0865 47.4208C41.7259 46.7814 42.6204 46.7117 42.6204 46.7117C44.3465 45.2989 44.992 46.2341 44.992 46.2341C45.8932 45.3026 46.9035 45.6953 46.9035 45.6953C46.9035 45.6953 48.7883 45.1232 49.6829 44.7396" fill="#FDFDF7"/>
<path d="M55.9974 43.5571C55.9974 43.5571 56.4168 44.1783 58.7289 44.6729C61.041 45.1668 60.7744 45.6959 60.7744 45.6959C60.7744 45.6959 62.4217 45.1723 62.7804 46.7123C62.7804 46.7123 64.1623 46.2068 64.6095 47.6771C65.0568 49.1474 63.3313 60.2699 62.4362 64.4244C61.541 68.5795 62.9477 78.6789 63.1392 87.6917C63.3307 96.7044 63.9065 122.785 64.8653 128.921C65.8241 135.058 68.4447 146.756 68.4447 146.756C68.4447 146.756 67.1023 146.947 65.8241 146.756C65.8241 146.756 62.6277 147.203 59.8156 147.267C57.0029 147.331 49.2683 146.181 47.9259 146.564C46.5835 146.948 39.9004 147.523 38.0004 146.756C38.0004 146.756 37.8901 137.871 39.1689 131.734C40.4471 125.598 38.5295 104.695 39.4883 99.4535C40.4471 94.2117 39.2326 72.7977 39.2326 72.7977L38.7004 65.1911C37.1453 61.9947 38.5932 58.9268 39.1047 55.2189C39.6162 51.5117 38.7004 48.6353 38.7004 48.6353C39.255 46.7814 41.0865 47.4208 41.0865 47.4208C41.7259 46.7814 42.6204 46.7117 42.6204 46.7117C44.3465 45.2989 44.992 46.2341 44.992 46.2341C45.8932 45.3026 46.9035 45.6953 46.9035 45.6953C46.9035 45.6953 48.7883 45.1232 49.6829 44.7396" stroke="#BDA687" stroke-miterlimit="10" stroke-linecap="square" stroke-linejoin="bevel"/>
<path d="M46.9023 45.696C47.4902 48.0766 48.2211 52.6772 50.8017 52.6772C58.4084 52.6766 59.0272 44.8044 59.0272 44.8044" stroke="#BDA687" stroke-miterlimit="10" stroke-linecap="square" stroke-linejoin="bevel"/>
<path d="M61.4134 51.2704C61.4134 51.2704 61.3315 51.314 61.1897 51.3995C61.2419 51.1819 61.2012 50.931 60.9443 50.674C60.9443 50.674 60.797 50.7437 60.5685 50.8649C60.6606 50.5043 60.6564 50.1073 60.0916 50.291C59.2394 50.5679 56.9703 51.1431 55.0843 55.0746C53.1988 59.0055 53.18 59.1019 52.0225 59.8685C51.0825 60.4916 43.0867 63.6437 40.1146 64.8061L39.8818 52.6655C39.8534 51.1849 39.4461 49.7364 38.6994 48.4583C37.1861 50.1843 36.9946 54.5946 35.78 60.1558C34.5655 65.717 33.5431 73.9631 36.0994 74.2189C38.6564 74.4746 54.7649 61.8182 54.7649 61.8182C54.7649 61.8182 57.0019 60.4122 58.3443 56.8964C59.6679 53.4292 60.8667 53.3813 60.8382 52.7055L61.2394 52.3364C61.2394 52.3364 61.7964 51.8243 61.4134 51.2704Z" fill="#FDFDF7" stroke="#BDA687" stroke-miterlimit="10" stroke-linecap="square" stroke-linejoin="bevel"/>
<path d="M60.5681 50.8643C60.5602 50.9503 58.4506 51.7388 57.0869 53.5927Z" fill="#FDFDF7"/>
<path d="M60.5681 50.8643C60.5602 50.9503 58.4506 51.7388 57.0869 53.5927" stroke="#BDA687" stroke-miterlimit="10" stroke-linecap="square" stroke-linejoin="bevel"/>
<path d="M61.1894 51.3994C61.1894 51.3994 58.9039 52.5327 57.7852 54.1309Z" fill="#FDFDF7"/>
<path d="M61.1894 51.3994C61.1894 51.3994 58.9039 52.5327 57.7852 54.1309" stroke="#BDA687" stroke-miterlimit="10" stroke-linecap="square" stroke-linejoin="bevel"/>
<path d="M60.8385 52.7049C60.8385 52.7049 60.1507 52.3091 58.584 54.4988Z" fill="#FDFDF7"/>
<path d="M60.8385 52.7049C60.8385 52.7049 60.1507 52.3091 58.584 54.4988" stroke="#BDA687" stroke-miterlimit="10" stroke-linecap="square" stroke-linejoin="bevel"/>
<path d="M59.2266 49.1328C60.2363 47.1776 60.7738 45.6958 60.7738 45.6958" stroke="#BDA687" stroke-miterlimit="10" stroke-linecap="square" stroke-linejoin="bevel"/>
<path d="M44.9912 46.2341C44.9912 46.2341 45.9864 54.722 51.6967 55.3184C52.6567 55.4184 53.55 55.2081 54.373 54.7887" stroke="#BDA687" stroke-miterlimit="10" stroke-linecap="square" stroke-linejoin="bevel"/>
<path d="M51.7598 49.1328C51.7598 49.1328 52.3349 47.6625 54.1246 47.3249C55.9143 46.9873 57.0864 46.114 57.0864 46.114" fill="#FDFDF7"/>
<path d="M51.7598 49.1328C51.7598 49.1328 52.3349 47.6625 54.1246 47.3249C55.9143 46.9873 57.0864 46.114 57.0864 46.114" stroke="#BDA687" stroke-miterlimit="10" stroke-linecap="square" stroke-linejoin="bevel"/>
<path d="M61.7188 49.1328C62.423 47.62 62.78 46.7122 62.78 46.7122" stroke="#BDA687" stroke-miterlimit="10" stroke-linecap="square" stroke-linejoin="bevel"/>
<path d="M42.6201 46.7122C42.6201 46.7122 44.5353 58.5358 51.7607 58.3019" stroke="#BDA687" stroke-miterlimit="10" stroke-linecap="square" stroke-linejoin="bevel"/>
<path d="M41.0859 47.4214C41.0859 47.4214 43.6229 60.2747 50.2308 60.7074" stroke="#BDA687" stroke-miterlimit="10" stroke-linecap="square" stroke-linejoin="bevel"/>
<path d="M38.6992 48.4578C38.6992 48.4578 40.0623 48.7772 41.0853 54.7863C41.4386 56.8602 42.1489 60.1372 43.0495 63.6499" fill="#FDFDF7"/>
<path d="M38.6992 48.4578C38.6992 48.4578 40.0623 48.7772 41.0853 54.7863C41.4386 56.8602 42.1489 60.1372 43.0495 63.6499" stroke="#BDA687" stroke-miterlimit="10" stroke-linecap="square" stroke-linejoin="bevel"/>
<path d="M42.6201 55.343C42.6201 55.343 43.4425 58.9751 44.6383 63.0327Z" fill="#FDFDF7"/>
<path d="M42.6201 55.343C42.6201 55.343 43.4425 58.9751 44.6383 63.0327" stroke="#BDA687" stroke-miterlimit="10" stroke-linecap="square" stroke-linejoin="bevel"/>
<path d="M47.4902 67.3159C48.6024 70.228 49.9011 72.6959 51.1218 72.748" stroke="#BDA687" stroke-miterlimit="10" stroke-linecap="square" stroke-linejoin="bevel"/>
<path d="M44.6387 57.854C44.6387 57.854 45.1253 59.9207 45.892 62.514Z" fill="#FDFDF7"/>
<path d="M44.6387 57.854C44.6387 57.854 45.1253 59.9207 45.892 62.514" stroke="#BDA687" stroke-miterlimit="10" stroke-linecap="square" stroke-linejoin="bevel"/>
<path d="M49.6826 73.4512C49.6826 73.4512 51.5032 73.9627 52.9747 69.1045C54.4463 64.2463 55.5747 61.1584 55.5747 61.1584" stroke="#BDA687" stroke-miterlimit="10" stroke-linecap="square" stroke-linejoin="bevel"/>
<path d="M50.2305 67.8262C50.2305 67.8262 51.9614 66.931 52.628 65.2056" stroke="#BDA687" stroke-miterlimit="10" stroke-linecap="square" stroke-linejoin="bevel"/>
<path d="M60.5681 54.4983C57.4918 65.0346 55.1887 72.9613 52.9736 78.5862C50.7584 84.211 49.676 87.1092 45.6572 87.1092" stroke="#BDA687" stroke-miterlimit="10" stroke-linecap="square" stroke-linejoin="bevel"/>
<path d="M41.0859 61.3401C41.0859 61.3401 41.1435 62.5243 41.2581 64.3577Z" fill="#FDFDF7"/>
<path d="M41.0859 61.3401C41.0859 61.3401 41.1435 62.5243 41.2581 64.3577" stroke="#BDA687" stroke-miterlimit="10" stroke-linecap="square" stroke-linejoin="bevel"/>
<path d="M46.3525 97.5075C46.3525 97.5075 47.6562 99.6384 50.2307 97.5075C52.8047 95.3766 55.9059 92.199 59.7119 75.2263C60.5483 71.4966 61.6628 68.0838 62.3035 65.0281" stroke="#BDA687" stroke-miterlimit="10" stroke-linecap="square" stroke-linejoin="bevel"/>
<path d="M48.0312 90.0066C48.0312 90.0066 52.5494 90.9442 56.2143 78.4157C59.8791 65.8872 62.3034 54.9775 62.3034 54.9775" stroke="#BDA687" stroke-miterlimit="10" stroke-linecap="square" stroke-linejoin="bevel"/>
<path d="M52.3928 36.4129C48.2583 45.2154 43.3413 42.7911 43.3413 42.7911L42.0219 36.6026L40.008 37.2978C40.2165 33.4038 41.3274 29.836 41.3274 29.836L40.8995 29.6766C40.8995 29.6766 38.111 28.4226 38.4728 26.4093C38.8898 24.0887 40.908 23.4887 44.145 25.5469C44.6225 25.8505 45.2837 26.1208 46.0662 26.1638" fill="#FDFDF7"/>
<path d="M52.3928 36.4129C48.2583 45.2154 43.3413 42.7911 43.3413 42.7911L42.0219 36.6026L40.008 37.2978C40.2165 33.4038 41.3274 29.836 41.3274 29.836L40.8995 29.6766C40.8995 29.6766 38.111 28.4226 38.4728 26.4093C38.8898 24.0887 40.908 23.4887 44.145 25.5469C44.6225 25.8505 45.2837 26.1208 46.0662 26.1638" stroke="#BDA687" stroke-miterlimit="10" stroke-linecap="square" stroke-linejoin="bevel"/>
<path d="M42.6992 39.762C42.6992 39.762 44.832 39.219 45.7174 38.5317Z" fill="#FDFDF7"/>
<path d="M42.6992 39.762C42.6992 39.762 44.832 39.219 45.7174 38.5317" stroke="#BDA687" stroke-miterlimit="10" stroke-linecap="square" stroke-linejoin="bevel"/>
<path d="M42.2559 33.1159C42.3916 33.2432 43.545 34.2972 44.8407 32.7844" stroke="#BDA687" stroke-miterlimit="10" stroke-linecap="square" stroke-linejoin="bevel"/>
<path d="M55.752 43.9589L55.8441 35.2007" stroke="#BDA687" stroke-miterlimit="10" stroke-linecap="square" stroke-linejoin="bevel"/>
<path d="M52.3929 36.4128C51.356 38.6977 50.2747 40.0947 49.2178 41.125C49.2553 41.2601 49.9178 44.8031 49.4972 48.9486" fill="#FDFDF7"/>
<path d="M52.3929 36.4128C51.356 38.6977 50.2747 40.0947 49.2178 41.125C49.2553 41.2601 49.9178 44.8031 49.4972 48.9486" stroke="#BDA687" stroke-miterlimit="10" stroke-linecap="square" stroke-linejoin="bevel"/>
<path d="M44.8414 32.354L46.6456 32.437C46.6456 32.437 45.9578 33.0364 44.3887 33.3843L44.8414 32.354Z" fill="#BDA687"/>
<path d="M49.1784 28.5281C49.1784 28.5281 47.7705 27.0633 45.5172 28.3287C44.0069 29.1772 42.2566 28.7439 41.8887 27.9966" fill="#FDFDF7"/>
<path d="M49.1784 28.5281C49.1784 28.5281 47.7705 27.0633 45.5172 28.3287C44.0069 29.1772 42.2566 28.7439 41.8887 27.9966" stroke="#BDA687" stroke-miterlimit="10" stroke-linecap="square" stroke-linejoin="bevel"/>
<path d="M57.2346 35.6195C57.2346 35.6195 55.7115 34.2183 53.5758 35.6735C52.1443 36.6492 50.3473 36.2353 49.917 35.5226" stroke="#BDA687" stroke-miterlimit="10" stroke-linecap="square" stroke-linejoin="bevel"/>
<path d="M50.8502 29.085C50.8502 29.085 49.9629 27.8232 48.1726 29.2698C46.9726 30.2395 45.7271 30.0038 45.5332 29.3238" fill="#FDFDF7"/>
<path d="M50.8502 29.085C50.8502 29.085 49.9629 27.8232 48.1726 29.2698C46.9726 30.2395 45.7271 30.0038 45.5332 29.3238" stroke="#BDA687" stroke-miterlimit="10" stroke-linecap="square" stroke-linejoin="bevel"/>
<path d="M52.175 27.8547C52.175 27.8547 51.749 28.6511 51.7672 29.1723C51.7696 29.2402 51.8029 29.3172 51.8514 29.3947C52.0326 29.6844 52.4544 29.6632 52.6108 29.3596C52.655 29.2735 52.6835 29.1887 52.6787 29.1159C52.6453 28.5947 52.175 27.8547 52.175 27.8547Z" fill="#BDA687"/>
<path d="M50.9912 30.9154C50.9912 30.9154 51.2124 30.0396 51.5761 29.6663C51.6233 29.6178 51.7003 29.5832 51.7876 29.5584C52.1161 29.4663 52.4136 29.7663 52.3252 30.096C52.3003 30.1893 52.2639 30.2711 52.2112 30.322C51.8373 30.6844 50.9912 30.9154 50.9912 30.9154Z" fill="#BDA687"/>
<path d="M53.2289 28.2063C53.2289 28.2063 52.8944 29.0457 52.9702 29.5614C52.9798 29.6287 53.0217 29.7014 53.0786 29.773C53.2908 30.0402 53.7077 29.9724 53.8289 29.653C53.8635 29.5627 53.8823 29.4748 53.8695 29.4033C53.7786 28.8899 53.2289 28.2063 53.2289 28.2063Z" fill="#BDA687"/>
<path d="M52.4307 31.3904C52.4307 31.3904 52.5525 30.4952 52.8731 30.0837C52.9149 30.0304 52.987 29.9874 53.0713 29.9534C53.3876 29.8255 53.7167 30.0904 53.6652 30.428C53.6507 30.5237 53.624 30.6092 53.5773 30.6655C53.2458 31.0668 52.4307 31.3904 52.4307 31.3904Z" fill="#BDA687"/>
<path d="M54.1932 28.3699C54.1932 28.3699 53.9871 29.2493 54.1386 29.7481C54.1586 29.8129 54.2108 29.879 54.2774 29.9408C54.5271 30.1735 54.9289 30.0444 55.0017 29.7105C55.0223 29.6159 55.0277 29.5262 55.0047 29.4571C54.838 28.9638 54.1932 28.3699 54.1932 28.3699Z" fill="#BDA687"/>
<path d="M53.8761 31.6371C53.8761 31.6371 53.8639 30.7335 54.1197 30.2795C54.153 30.2207 54.2185 30.1674 54.2967 30.1207C54.5906 29.9474 54.9555 30.1601 54.9542 30.5014C54.9542 30.5977 54.9403 30.6868 54.9027 30.7492C54.6336 31.1965 53.8761 31.6371 53.8761 31.6371Z" fill="#BDA687"/>
<path d="M55.2945 28.3318C55.2945 28.3318 55.2097 29.2312 55.4285 29.7045C55.4569 29.7663 55.5175 29.8245 55.5921 29.8766C55.8709 30.0736 56.2515 29.8906 56.2781 29.55C56.2854 29.4536 56.2788 29.3639 56.2466 29.2991C56.0145 28.8318 55.2945 28.3318 55.2945 28.3318Z" fill="#BDA687"/>
<path d="M55.4262 31.6112C55.4262 31.6112 55.291 30.7178 55.4825 30.233C55.5074 30.17 55.565 30.1082 55.6359 30.0518C55.9032 29.8397 56.2935 30.0009 56.3395 30.3391C56.3522 30.4348 56.351 30.5245 56.3219 30.5918C56.1165 31.0712 55.4262 31.6112 55.4262 31.6112Z" fill="#BDA687"/>
<path d="M56.1436 28.134C56.1436 28.134 56.2514 29.031 56.5654 29.4474C56.606 29.5013 56.6781 29.5455 56.7617 29.5807C57.0763 29.7134 57.409 29.454 57.3629 29.1152C57.3502 29.0195 57.3242 28.9334 57.2787 28.8765C56.9533 28.4698 56.1436 28.134 56.1436 28.134Z" fill="#BDA687"/>
<path d="M56.9684 31.3111C56.9684 31.3111 56.6466 30.4668 56.7309 29.9523C56.7418 29.8856 56.7848 29.8129 56.8424 29.7426C57.0587 29.4784 57.4745 29.5529 57.5909 29.8735C57.6236 29.9644 57.6412 30.0523 57.6272 30.1238C57.5284 30.6359 56.9684 31.3111 56.9684 31.3111Z" fill="#BDA687"/>
<path d="M49.9795 28.6257C49.9795 28.6257 50.4934 29.3682 50.9656 29.5894C51.0268 29.6179 51.111 29.6233 51.2013 29.6154C51.5413 29.5857 51.7146 29.2003 51.5159 28.9227C51.4595 28.8439 51.3971 28.7803 51.3298 28.7512C50.8522 28.5433 49.9795 28.6257 49.9795 28.6257Z" fill="#BDA687"/>
<path d="M51.5664 29.3474C51.5664 29.3474 54.8422 31.0959 57.9397 29.1389" stroke="#BDA687" stroke-miterlimit="10" stroke-linecap="square" stroke-linejoin="bevel"/>
<path d="M41.3722 51.2704C41.3722 51.2704 41.454 51.314 41.5958 51.3995C41.5437 51.1819 41.5843 50.931 41.8413 50.674C41.8413 50.674 41.9886 50.7437 42.2171 50.8649C42.1249 50.5043 42.1292 50.1073 42.694 50.291C43.5462 50.5679 45.8152 51.1431 47.7013 55.0746C49.5868 59.0055 49.6055 59.1019 50.7631 59.8685C51.7025 60.4916 59.6989 63.6437 62.671 64.8061L62.9037 52.6655C62.9322 51.1849 63.3395 49.7364 64.0861 48.4583C65.5995 50.1843 65.791 54.5946 67.0055 60.1558C68.2201 65.717 69.2425 73.9631 66.6861 74.2189C64.1292 74.4746 48.0207 61.8182 48.0207 61.8182C48.0207 61.8182 45.7837 60.4122 44.4413 56.8964C43.1177 53.4292 41.9189 53.3813 41.9474 52.7055L41.5461 52.3364C41.5449 52.3358 40.9886 51.8243 41.3722 51.2704Z" fill="#FDFDF7" stroke="#BDA687" stroke-miterlimit="10" stroke-linecap="square" stroke-linejoin="bevel"/>
<path d="M42.2168 50.8643C42.2247 50.9503 44.3344 51.7388 45.698 53.5927Z" fill="#FDFDF7"/>
<path d="M42.2168 50.8643C42.2247 50.9503 44.3344 51.7388 45.698 53.5927" stroke="#BDA687" stroke-miterlimit="10" stroke-linecap="square" stroke-linejoin="bevel"/>
<path d="M41.5957 51.3994C41.5957 51.3994 43.8812 52.5327 44.9999 54.1309Z" fill="#FDFDF7"/>
<path d="M41.5957 51.3994C41.5957 51.3994 43.8812 52.5327 44.9999 54.1309" stroke="#BDA687" stroke-miterlimit="10" stroke-linecap="square" stroke-linejoin="bevel"/>
<path d="M41.9463 52.7049C41.9463 52.7049 42.6342 52.3091 44.2002 54.4988Z" fill="#FDFDF7"/>
<path d="M41.9463 52.7049C41.9463 52.7049 42.6342 52.3091 44.2002 54.4988" stroke="#BDA687" stroke-miterlimit="10" stroke-linecap="square" stroke-linejoin="bevel"/>
</g>
</svg>
