<svg width="100" height="100" viewBox="0 0 100 100" fill="none" xmlns="http://www.w3.org/2000/svg">
<path d="M69.3496 24.0049V27.3643" stroke="#BDA687" stroke-miterlimit="10" stroke-linecap="square" stroke-linejoin="bevel"/>
<path d="M71.0293 25.6843H67.6699" stroke="#BDA687" stroke-miterlimit="10" stroke-linecap="square" stroke-linejoin="bevel"/>
<path d="M76.7305 49.7412V53.1006" stroke="#BDA687" stroke-miterlimit="10" stroke-linecap="square" stroke-linejoin="bevel"/>
<path d="M78.4102 51.4211H75.0508" stroke="#BDA687" stroke-miterlimit="10" stroke-linecap="square" stroke-linejoin="bevel"/>
<path d="M35.1758 41.6776C35.1758 41.6776 37.6358 41.8267 37.6358 45.1067H37.7188C37.7188 41.8273 40.1788 41.6776 40.1788 41.6776V41.5934C40.1788 41.5934 37.7188 41.4443 37.7188 38.1643H37.6358C37.6358 41.4437 35.1758 41.5934 35.1758 41.5934V41.6776Z" fill="#F8F9F3" stroke="#BDA687" stroke-miterlimit="10" stroke-linecap="square" stroke-linejoin="bevel"/>
<path d="M70.4505 63.9183C70.4505 64.2226 70.2038 64.4692 69.8995 64.4692C69.5953 64.4692 69.3486 64.2226 69.3486 63.9183C69.3486 63.6141 69.5953 63.3674 69.8995 63.3674C70.2038 63.3674 70.4505 63.6141 70.4505 63.9183Z" fill="#BDA687"/>
<path d="M56.1655 61.145C56.1655 61.145 55.8249 70.4904 54.8516 73.1662L55.0461 78.6649L55.9219 79.6868L56.0588 82.3801L59.44 82.3655L57.5764 78.8601L57.2358 73.1183C57.2358 73.1183 59.8637 64.5056 60.5934 63.4346L61.0043 57.7559L56.1655 61.145Z" fill="#BDA687"/>
<path d="M51.423 29.5595C51.423 29.5595 53.8115 29.0607 57.7333 29.274C61.6551 29.488 62.8672 30.4146 62.8672 30.4146C63.1266 33.0073 62.9109 35.6255 62.2302 38.1407L62.083 38.6855C62.083 39.8976 63.4218 43.0249 63.4218 43.0249C64.3333 45.831 64.3121 48.8558 63.3642 51.6498L62.149 55.231C61.523 57.077 60.5109 58.7673 59.1781 60.1898C58.0121 61.4346 56.6981 62.8734 56.3163 63.4334C55.5866 64.5043 52.9587 73.117 52.9587 73.117L53.2993 78.8589L55.163 82.3643L51.7818 82.3788L51.6448 79.6855L50.769 78.6637L50.5745 73.1649C51.5478 70.4885 51.8884 63.5789 51.8884 63.5789C45.903 66.9849 37.7278 66.8879 37.7278 66.8879C37.7278 66.8879 29.6502 76.377 29.2605 77.4958C28.8715 78.6152 27.7036 84.5516 27.7036 84.5516L28.823 87.374H26.8763L24.7842 85.1358C27.4605 79.8316 26.6824 74.1873 26.6824 74.1873C29.0672 72.6788 29.7963 68.4455 29.7963 68.4455C28.0915 67.434 27.4005 64.7589 27.1205 62.754C26.8799 61.0292 27.3527 59.2564 28.4939 57.9413C28.5672 57.8564 28.6412 57.7764 28.7151 57.7019C30.7345 55.6625 33.243 54.1752 35.9678 53.2734L44.1157 50.5758C46.1236 49.911 47.9496 48.7904 49.4521 47.3019C51.5387 45.234 52.9048 42.5492 53.349 39.6455L52.2084 38.4007L52.2442 39.5061C52.2442 39.5061 50.8539 38.5437 50.6575 37.1176L50.069 37.7237L49.6769 35.6916L50.9605 32.1619" fill="#FDFDF7"/>
<path d="M51.423 29.5595C51.423 29.5595 53.8115 29.0607 57.7333 29.274C61.6551 29.488 62.8672 30.4146 62.8672 30.4146C63.1266 33.0073 62.9109 35.6255 62.2302 38.1407L62.083 38.6855C62.083 39.8976 63.4218 43.0249 63.4218 43.0249C64.3333 45.831 64.3121 48.8558 63.3642 51.6498L62.149 55.231C61.523 57.077 60.5109 58.7673 59.1781 60.1898C58.0121 61.4346 56.6981 62.8734 56.3163 63.4334C55.5866 64.5043 52.9587 73.117 52.9587 73.117L53.2993 78.8589L55.163 82.3643L51.7818 82.3788L51.6448 79.6855L50.769 78.6637L50.5745 73.1649C51.5478 70.4885 51.8884 63.5789 51.8884 63.5789C45.903 66.9849 37.7278 66.8879 37.7278 66.8879C37.7278 66.8879 29.6502 76.377 29.2605 77.4958C28.8715 78.6152 27.7036 84.5516 27.7036 84.5516L28.823 87.374H26.8763L24.7842 85.1358C27.4605 79.8316 26.6824 74.1873 26.6824 74.1873C29.0672 72.6788 29.7963 68.4455 29.7963 68.4455C28.0915 67.434 27.4005 64.7589 27.1205 62.754C26.8799 61.0292 27.3527 59.2564 28.4939 57.9413C28.5672 57.8564 28.6412 57.7764 28.7151 57.7019C30.7345 55.6625 33.243 54.1752 35.9678 53.2734L44.1157 50.5758C46.1236 49.911 47.9496 48.7904 49.4521 47.3019C51.5387 45.234 52.9048 42.5492 53.349 39.6455L52.2084 38.4007L52.2442 39.5061C52.2442 39.5061 50.8539 38.5437 50.6575 37.1176L50.069 37.7237L49.6769 35.6916L50.9605 32.1619" stroke="#BDA687" stroke-miterlimit="10" stroke-linecap="square" stroke-linejoin="bevel"/>
<path d="M38.6429 60.3582C39.0078 64.5915 37.7266 66.8891 37.7266 66.8891C37.7266 66.8891 38.2302 66.8951 39.0775 66.8521C39.5314 63.6969 38.6429 60.3582 38.6429 60.3582Z" fill="#BDA687" stroke="#BDA687" stroke-miterlimit="10" stroke-linecap="square" stroke-linejoin="bevel"/>
<path d="M51.8866 60.626C51.8866 60.626 51.6175 62.5272 51.2617 63.9181C51.472 63.809 51.6811 63.6969 51.8866 63.5799C51.8866 63.5799 51.9926 61.9399 51.8866 60.626Z" fill="#BDA687" stroke="#BDA687" stroke-miterlimit="10" stroke-linecap="square" stroke-linejoin="bevel"/>
<path d="M37.7272 66.8892C37.7272 66.8892 35.9012 69.034 33.9442 71.4049C33.4587 72.471 32.7581 73.5637 31.7703 74.1886C31.7703 74.1886 32.5484 79.8334 29.8721 85.137L31.9642 87.3752H33.9109L32.7915 84.5528C32.7915 84.5528 33.9593 78.6164 34.3484 77.4971C34.7375 76.3777 42.8157 66.8892 42.8157 66.8892C42.8157 66.8892 47.1072 66.9389 51.7478 65.6716C51.8454 64.4413 51.8878 63.5801 51.8878 63.5801C45.9024 66.9861 37.7272 66.8892 37.7272 66.8892Z" fill="#BDA687"/>
<path d="M59.9703 31.2969L60.2491 27.4199L56.8309 27.4557L55.9866 27.6624L55.7188 29.2205" fill="#FDFDF7"/>
<path d="M59.9703 31.2969L60.2491 27.4199L56.8309 27.4557L55.9866 27.6624L55.7188 29.2205" stroke="#BDA687" stroke-miterlimit="10" stroke-linecap="square" stroke-linejoin="bevel"/>
<path d="M57.6861 18.7569C55.9455 19.0769 54.6558 20.8605 54.7273 22.1435C54.7988 23.4272 52.3425 29.1714 53.337 28.3114L56.831 27.4557L60.2491 27.4199L63.2122 30.4502H63.64L62.6061 24.6035L59.754 23.9975L58.934 22.6072L62.5704 23.926L62.4637 20.5035L61.5013 20.7532C61.5013 20.7532 61.18 18.1151 57.6861 18.7569Z" fill="#FDFDF7" stroke="#BDA687" stroke-miterlimit="10" stroke-linecap="square" stroke-linejoin="bevel"/>
<path d="M51.1974 16.2673C47.0017 19.0067 52.1598 24.6164 46.0635 28.7903C46.0635 28.7903 48.5235 29.06 49.8065 26.8831L48.5229 29.0594C48.5229 29.0594 52.5871 28.6994 52.5871 22.1037C52.5871 17.1164 56.2798 19.3764 56.2798 19.3764L58.3683 18.6558C58.3695 18.6564 55.461 13.4837 51.1974 16.2673Z" fill="#BDA687"/>
<path d="M23.0803 59.2205C22.9379 51.3702 30.2639 56.4575 30.2639 56.4575L31.2978 55.5611C31.2978 55.5611 27.3294 49.2199 21.9397 52.2326C13.3366 57.0411 22.8312 63.5799 13.333 72.9744C13.333 72.9744 20.5312 74.3714 22.7621 68.7835C24.6342 64.095 23.1251 61.6605 23.0803 59.2205Z" fill="#BDA687"/>
<path d="M43.6906 87.2164C43.5318 87.1109 40.1403 85.36 40.1403 85.36L42.4682 83.8255L53.0457 82.38L56.427 82.3655L57.3245 82.38L60.7045 82.3655C60.7045 82.3655 62.1064 84.1437 61.9476 84.0109C61.7888 83.8788 58.35 85.5188 58.35 85.5188L63.3233 85.36C63.3233 85.36 65.2809 88.4818 65.3336 88.64C65.3864 88.7988 65.3336 89.434 65.3336 89.434H24.1094L25.596 87.3752H30.0876L43.6906 87.2164Z" fill="#BDA687"/>
<path d="M50.9594 29.6794C50.9594 29.6794 47.9649 30.8425 46.3249 31.8764C44.6849 32.9104 43.8291 33.6946 43.8291 33.6946L44.1855 34.8C44.1855 34.8 45.2552 35.4776 46.2533 35.62C47.2515 35.7625 53.8115 35.834 53.8115 35.834C53.8115 35.834 55.0594 36.3685 55.3443 36.2976C55.6297 36.2261 56.2952 35.7982 56.2952 35.7982L56.9485 34.4079L58.0891 34.0158C58.0891 34.0158 58.0564 33.374 57.3952 33.2673C56.7346 33.1606 55.7715 32.5255 55.1297 32.9322C54.4879 33.3388 53.24 33.6243 52.563 33.6243C51.8855 33.6243 50.1388 32.2697 48.0352 32.6619" fill="#FDFDF7"/>
<path d="M50.9594 29.6794C50.9594 29.6794 47.9649 30.8425 46.3249 31.8764C44.6849 32.9104 43.8291 33.6946 43.8291 33.6946L44.1855 34.8C44.1855 34.8 45.2552 35.4776 46.2533 35.62C47.2515 35.7625 53.8115 35.834 53.8115 35.834C53.8115 35.834 55.0594 36.3685 55.3443 36.2976C55.6297 36.2261 56.2952 35.7982 56.2952 35.7982L56.9485 34.4079L58.0891 34.0158C58.0891 34.0158 58.0564 33.374 57.3952 33.2673C56.7346 33.1606 55.7715 32.5255 55.1297 32.9322C54.4879 33.3388 53.24 33.6243 52.563 33.6243C51.8855 33.6243 50.1388 32.2697 48.0352 32.6619" stroke="#BDA687" stroke-miterlimit="10" stroke-linecap="square" stroke-linejoin="bevel"/>
<path d="M79.1951 33.2091C79.1951 33.2091 78.2678 32.8746 77.7333 32.7321C77.1987 32.5897 76.2005 33.1958 76.2005 33.1958C76.2005 33.1958 75.4163 33.3382 73.4199 32.6964C71.4236 32.0546 69.5339 32.1976 68.3217 31.9121C67.1096 31.6267 62.8672 30.4146 62.8672 30.4146C62.9963 31.7079 63.0072 33.0073 62.9017 34.2976L65.8975 34.6212C65.8975 34.6212 67.9654 34.4788 70.2823 34.9067C72.5999 35.3346 74.4532 34.7642 75.8084 35.263C77.1629 35.7624 78.589 35.6552 78.589 35.6552C79.4442 34.5861 79.1951 33.2091 79.1951 33.2091Z" fill="#BDA687"/>
<path d="M57.3955 33.2666H84.2573" stroke="#BDA687" stroke-miterlimit="10" stroke-linecap="square" stroke-linejoin="bevel"/>
<path d="M86.6938 33.2667L82.5811 31.9734L83.2235 33.2667L82.5811 34.5601L86.6938 33.2667Z" fill="#BDA687"/>
<path d="M67.0977 11.5151C67.1013 15.9 68.8164 17.9612 72.2128 21.383C76.5855 25.7891 81.5449 29.946 77.7868 33.2672" stroke="#BDA687" stroke-miterlimit="10" stroke-linecap="square" stroke-linejoin="bevel"/>
<path d="M67.0977 55.0187C67.1013 50.6339 68.8164 48.5727 72.2128 45.1508C76.5855 40.7448 81.5449 36.5878 77.7868 33.2666" stroke="#BDA687" stroke-miterlimit="10" stroke-linecap="square" stroke-linejoin="bevel"/>
<path d="M67.181 13.9043L57.3955 33.2667L67.1379 52.5455" stroke="#BDA687" stroke-miterlimit="10" stroke-linecap="square" stroke-linejoin="bevel"/>
<path d="M59.1775 60.1902C60.3715 56.5108 58.7672 50.8424 55.7188 47.9551" stroke="#BDA687" stroke-miterlimit="10" stroke-linecap="square" stroke-linejoin="bevel"/>
<path d="M60.249 37.2593C60.249 39.9484 61.726 42.2502 61.9399 45.6017C62.1539 48.9526 61.5121 50.5356 61.5121 50.5356" stroke="#BDA687" stroke-miterlimit="10" stroke-linecap="square" stroke-linejoin="bevel"/>
<path d="M56.8311 27.4557C56.9377 27.4545 60.0771 29.8163 60.0771 29.8163L60.2492 27.4199L56.8311 27.4557Z" fill="#BDA687"/>
</svg>
