<svg width="100" height="100" viewBox="0 0 100 100" fill="none" xmlns="http://www.w3.org/2000/svg">
<path d="M44.7217 36.9875V40.3463" stroke="#BDA687" stroke-miterlimit="10" stroke-linecap="square" stroke-linejoin="bevel"/>
<path d="M46.4014 38.667H43.042" stroke="#BDA687" stroke-miterlimit="10" stroke-linecap="square" stroke-linejoin="bevel"/>
<path d="M77.6426 43.1768V46.5355" stroke="#BDA687" stroke-miterlimit="10" stroke-linecap="square" stroke-linejoin="bevel"/>
<path d="M79.3217 44.8562H75.9629" stroke="#BDA687" stroke-miterlimit="10" stroke-linecap="square" stroke-linejoin="bevel"/>
<path d="M73.4619 18.7069C73.4619 18.7069 75.9219 18.856 75.9219 22.136H76.0049C76.0049 18.8566 78.4649 18.7069 78.4649 18.7069V18.6227C78.4649 18.6227 76.0049 18.4736 76.0049 15.1936H75.9219C75.9219 18.473 73.4619 18.6227 73.4619 18.6227V18.7069Z" fill="#FDFDF7" stroke="#BDA687" stroke-miterlimit="10" stroke-linecap="square" stroke-linejoin="bevel"/>
<path d="M26.4573 49.2233C26.4573 49.5275 26.2106 49.7742 25.9064 49.7742C25.6021 49.7742 25.3555 49.5275 25.3555 49.2233C25.3555 48.919 25.6021 48.6724 25.9064 48.6724C26.2106 48.6724 26.4573 48.919 26.4573 49.2233Z" fill="#BDA687"/>
<path d="M68.8725 24.245C68.8725 24.245 68.4409 23.9928 67.7634 23.7831C66.7882 23.4819 65.3022 23.2728 63.8543 24.0322C63.0609 24.4486 62.2791 25.1541 61.5997 26.2989C58.8191 30.9832 59.1397 35.4753 56.1452 39.2183C53.1506 42.9613 50.0488 46.3056 46.5197 48.2165C44.7276 49.1868 42.8313 49.6868 41.3925 49.9468C40.1979 48.5559 38.8767 47.0025 37.4288 45.2789C33.6349 40.7619 33.9731 36.0553 34.3119 34.1844C34.3804 33.8062 34.7549 32.2413 35.3385 31.988C35.8125 31.7825 36.4713 31.6274 37.4658 31.7322C40.8513 32.0886 47.0549 32.588 50.1209 26.7413C50.1209 26.7413 41.1367 23.3189 38.1422 24.1031C35.6494 24.7559 34.5034 29.1632 34.0603 30.7213C34.4197 29.1565 36.5864 23.2498 30.7494 22.1783C25.7985 21.2692 22.621 20.9304 22.0282 20.9304C22.0282 20.9304 20.8282 24.7304 24.167 28.3637C25.7719 30.1098 28.6676 30.9644 31.127 31.4256C31.7349 31.5395 32.1064 32.1462 31.9482 32.7444C31.8234 33.2153 31.6555 33.7038 31.547 33.9856C28.7634 41.1959 30.8694 46.7971 34.5488 51.9322C32.8731 52.6765 31.2791 53.5995 29.8204 54.7341C25.724 57.9201 21.9573 62.882 21.9573 69.9498C21.9573 78.4704 25.4513 86.5092 39.0337 86.5092C51.4119 86.5092 57.7737 73.4147 51.3458 61.9359C52.3446 61.3971 53.3688 60.6656 54.4349 59.6468C54.4349 59.6468 57.7506 67.7753 55.3973 74.7268V77.1868L56.467 80.5026H59.2476L57.8573 76.9729V74.228C57.8573 74.228 60.1034 63.682 62.2422 59.9529C64.3809 56.2238 69.7288 49.4862 69.9428 43.9244C70.1567 38.3626 66.5203 33.3456 66.5203 33.3456L67.6967 32.6941C67.6967 32.6941 69.7288 33.6759 71.9749 33.3456L72.0815 36.2237L73.2579 38.2559L73.8997 34.9401L76.2525 31.7316L68.8725 24.245ZM30.584 71.8868C30.2276 65.5995 34.5058 62.8189 41.1725 63.068C41.9688 63.0977 42.7488 63.1541 43.521 63.2007C45.1343 65.5698 46.2719 67.951 46.4131 70.448C47.0203 81.1807 31.0543 80.1789 30.584 71.8868Z" fill="#FDFDF7" stroke="#BDA687" stroke-miterlimit="10" stroke-linecap="square" stroke-linejoin="bevel"/>
<path d="M67.7629 23.7832C68.4405 23.9923 68.872 24.245 68.872 24.245L70.212 25.6044C70.0866 22.5189 69.1569 15.4371 63.3466 13.7171C61.3587 13.1286 59.5381 13.2517 58.0205 13.8486C64.1908 14.1311 66.9684 21.2486 67.7629 23.7832Z" fill="#BDA687"/>
<path d="M68.6523 28.693C68.6523 28.693 69.9148 28.1669 71.0233 27.9918C71.0233 27.9918 69.5045 26.6736 68.6523 28.693Z" fill="#BDA687"/>
<path d="M76.7868 55.4353L68.7231 48.7971C67.7728 51.0923 66.408 53.3844 65.1038 55.4323L65.1025 55.4353C68.8189 57.642 74.0068 58.3699 74.0068 58.3699L69.408 64.1383L68.0177 65.1008L66.3062 65.5286V68.5232L69.8383 66.3844L77.6431 58.4699L76.7868 55.4353Z" fill="#BDA687"/>
<path d="M67.6957 32.6941C67.6957 32.6941 65.129 31.3571 64.5938 29.0044C64.5938 29.0044 64.3799 31.3765 66.5187 33.3456L67.6957 32.6941Z" fill="#BDA687" stroke="#BDA687" stroke-miterlimit="10" stroke-linecap="square" stroke-linejoin="bevel"/>
<path d="M43.5205 63.2014C43.7096 63.4789 43.8902 63.7565 44.0654 64.0341C44.0848 64.0644 44.1042 64.0953 44.1235 64.1256C44.2902 64.3929 44.4496 64.6608 44.6017 64.9286C44.6229 64.9656 44.6435 65.0032 44.6648 65.0408C44.8157 65.3104 44.9599 65.5808 45.0944 65.8517C45.1072 65.8771 45.1187 65.9026 45.1314 65.928C45.1848 66.0371 45.2387 66.1468 45.2896 66.2559C51.2084 64.7135 51.346 61.9353 51.346 61.9353C48.6381 63.3941 46.1247 63.3589 43.5205 63.2014Z" fill="#BDA687" stroke="#BDA687" stroke-miterlimit="10" stroke-linecap="square" stroke-linejoin="bevel"/>
<path d="M41.0375 50.0099C41.1502 49.9917 41.2726 49.9687 41.3926 49.9469C41.0169 49.5099 40.6278 49.0548 40.2266 48.5845C37.2793 49.1924 34.9272 49.9493 33.5381 50.4493C33.8611 50.9487 34.1981 51.4427 34.5478 51.9311C36.6084 51.0154 38.7951 50.3754 41.0375 50.0099Z" fill="#BDA687" stroke="#BDA687" stroke-miterlimit="10" stroke-linecap="square" stroke-linejoin="bevel"/>
<path d="M53.3075 60.6212C53.6784 60.3261 54.053 60.0103 54.4342 59.6461L53.2578 55.4358C53.2578 55.4358 53.3269 58.0043 53.3075 60.6212Z" fill="#BDA687" stroke="#BDA687" stroke-miterlimit="10" stroke-linecap="square" stroke-linejoin="bevel"/>
<path d="M68.0176 24.6728C68.0176 24.6728 67.9364 24.334 67.7637 23.7837C66.9528 21.1976 64.0801 13.8352 57.6431 13.8352C50.9764 13.8352 48.0528 20.3946 50.9764 24.6728C50.9764 24.6728 50.5485 16.6873 57.6431 16.6873C61.3013 16.6873 63.0334 20.4182 63.8546 24.0328C63.9819 24.5934 64.0891 25.1516 64.1764 25.6922" fill="#FDFDF7"/>
<path d="M68.0176 24.6728C68.0176 24.6728 67.9364 24.334 67.7637 23.7837C66.9528 21.1976 64.0801 13.8352 57.6431 13.8352C50.9764 13.8352 48.0528 20.3946 50.9764 24.6728C50.9764 24.6728 50.5485 16.6873 57.6431 16.6873C61.3013 16.6873 63.0334 20.4182 63.8546 24.0328C63.9819 24.5934 64.0891 25.1516 64.1764 25.6922" stroke="#BDA687" stroke-miterlimit="10" stroke-linecap="square" stroke-linejoin="bevel"/>
<path d="M50.1789 84.8971C49.988 84.7916 45.9068 83.0407 45.9068 83.0407L48.708 81.5061L61.4371 80.0607L65.5055 80.0461L66.5861 80.0607L70.6534 80.0461C70.6534 80.0461 72.3401 81.8243 72.1492 81.6916C71.9583 81.5595 67.8195 83.1995 67.8195 83.1995L73.8043 83.0407C73.8043 83.0407 76.1601 86.1625 76.2237 86.3213C76.2873 86.4801 76.2237 87.1152 76.2237 87.1152H26.6152L28.4043 85.0564H33.8092L50.1789 84.8971Z" fill="#BDA687"/>
<path d="M63.348 25.6044L60.0316 23.5105C60.0316 23.5105 59.7486 28.1311 63.348 28.1311" fill="#FDFDF7"/>
<path d="M63.348 25.6044L60.0316 23.5105C60.0316 23.5105 59.7486 28.1311 63.348 28.1311" stroke="#BDA687" stroke-miterlimit="10" stroke-linecap="square" stroke-linejoin="bevel"/>
<path d="M25.9844 21.4941C25.9844 21.4941 25.4141 25.3814 27.3747 27.8414" stroke="#BDA687" stroke-miterlimit="10" stroke-linecap="square" stroke-linejoin="bevel"/>
<path d="M29.4678 22.0559C29.4678 22.0559 28.8975 25.9432 30.8581 28.4032" stroke="#BDA687" stroke-miterlimit="10" stroke-linecap="square" stroke-linejoin="bevel"/>
<path d="M46.6633 25.5491C46.6633 25.5491 45.5809 29.326 42.7803 30.7588" stroke="#BDA687" stroke-miterlimit="10" stroke-linecap="square" stroke-linejoin="bevel"/>
<path d="M43.258 24.6255C43.258 24.6255 42.1756 28.4025 39.375 29.8352" stroke="#BDA687" stroke-miterlimit="10" stroke-linecap="square" stroke-linejoin="bevel"/>
</svg>
