<svg width="100" height="100" viewBox="0 0 100 100" fill="none" xmlns="http://www.w3.org/2000/svg">
<g clip-path="url(#clip0_862_208)">
<path d="M35.5029 22.3994V25.7588" stroke="#BDA687" stroke-miterlimit="10" stroke-linecap="square" stroke-linejoin="bevel"/>
<path d="M37.1826 24.0789H33.8232" stroke="#BDA687" stroke-miterlimit="10" stroke-linecap="square" stroke-linejoin="bevel"/>
<path d="M55.5723 41.1139C55.5723 41.1139 58.0323 41.263 58.0323 44.543H58.1153C58.1153 41.2636 60.5753 41.1139 60.5753 41.1139V41.0297C60.5753 41.0297 58.1153 40.8806 58.1153 37.6006H58.0323C58.0323 40.88 55.5723 41.0297 55.5723 41.0297V41.1139Z" fill="#FDFDF7" stroke="#BDA687" stroke-miterlimit="10" stroke-linecap="square" stroke-linejoin="bevel"/>
<path d="M41.5244 46.043V49.4018" stroke="#BDA687" stroke-miterlimit="10" stroke-linecap="square" stroke-linejoin="bevel"/>
<path d="M43.2035 47.7224H39.8447" stroke="#BDA687" stroke-miterlimit="10" stroke-linecap="square" stroke-linejoin="bevel"/>
<path d="M65.0608 18.7328C65.0608 19.037 64.8141 19.2837 64.5099 19.2837C64.2056 19.2837 63.959 19.037 63.959 18.7328C63.959 18.4285 64.2056 18.1819 64.5099 18.1819C64.8141 18.1819 65.0608 18.4285 65.0608 18.7328Z" fill="#BDA687"/>
<path d="M51.6873 58.2412V36.4915H50.1752H48.6631V58.2412C49.057 58.0593 49.551 57.9454 50.1752 57.9454C50.7994 57.9454 51.2934 58.0593 51.6873 58.2412Z" fill="#BDA687"/>
<path d="M47.2093 28.986C41.8996 29.0709 40.5002 30.0296 34.5099 32.3018C33.8506 32.5521 33.2499 32.7406 32.7027 32.8787C30.4154 33.4545 28.1905 32.0848 27.5027 29.9757C26.8899 28.0975 24.4978 27.4145 23.1215 28.8315C21.9148 30.0739 21.9748 32.3757 24.7578 33.7466C29.5978 36.1303 33.8596 36.0218 39.7105 32.8078C42.7378 31.1442 45.7245 31.5448 47.1505 31.8951V29.5933C47.1505 29.5933 47.1409 29.3745 47.2093 28.986Z" fill="#FDFDF7" stroke="#BDA687" stroke-miterlimit="10" stroke-linecap="square" stroke-linejoin="bevel"/>
<path d="M50.1753 22.9836C47.028 26.3636 47.151 28.9764 47.151 28.9764H50.1753H53.1995C53.1995 28.9764 53.3219 26.3636 50.1753 22.9836Z" fill="#BDA687" stroke="#BDA687" stroke-miterlimit="10" stroke-linecap="square" stroke-linejoin="bevel"/>
<path d="M53.1988 34.7363V28.9763H50.1746H47.1503V34.7363C47.1503 34.7363 46.9679 37.9363 50.1746 37.9363C53.3812 37.9363 53.1988 34.7363 53.1988 34.7363Z" fill="#FDFDF7" stroke="#BDA687" stroke-miterlimit="10" stroke-linecap="square" stroke-linejoin="bevel"/>
<path d="M57.1036 69.7194C54.9491 69.7194 53.2018 67.9727 53.2018 65.8176V60.9242C53.2018 60.9242 53.3843 57.9448 50.1776 57.9448C46.9715 57.9448 47.1533 60.9242 47.1533 60.9242V65.8176C47.1533 67.9721 45.4067 69.7194 43.2515 69.7194H39.0527V71.0194H61.3012V69.7194H57.1036Z" fill="#FDFDF7" stroke="#BDA687" stroke-miterlimit="10" stroke-linecap="square" stroke-linejoin="bevel"/>
<path d="M70.5661 71.02H29.7891V72.32H70.5661V71.02Z" fill="#BDA687"/>
<path d="M51.5752 21.5842C51.5752 22.3569 50.9485 22.9836 50.1758 22.9836C49.403 22.9836 48.7764 22.3569 48.7764 21.5842C48.7764 20.8115 49.403 20.1848 50.1758 20.1848C50.9485 20.1842 51.5752 20.8109 51.5752 21.5842Z" fill="#BDA687"/>
<path d="M26.3417 34.4419L15.1514 57.2952H37.532L26.3417 34.4419Z" fill="#FDFDF7" stroke="#BDA687" stroke-miterlimit="10" stroke-linecap="square" stroke-linejoin="bevel"/>
<path d="M15.1514 57.2952H37.518C35.9574 61.9788 31.541 65.3576 26.3326 65.3576C21.1247 65.3576 16.712 61.9806 15.1514 57.297V57.2952Z" fill="#BDA687" stroke="#BDA687" stroke-miterlimit="10" stroke-linecap="square" stroke-linejoin="bevel"/>
<path d="M53.2012 28.986C58.5109 29.0709 59.9103 30.0296 65.9006 32.3018C66.56 32.5521 67.1606 32.7406 67.7078 32.8787C69.9951 33.4545 72.22 32.0848 72.9078 29.9757C73.5206 28.0975 75.9127 27.4145 77.289 28.8315C78.4957 30.0739 78.4357 32.3757 75.6527 33.7466C70.8127 36.1303 66.5509 36.0218 60.7 32.8078C57.6721 31.1442 54.686 31.5448 53.26 31.8951V29.5933C53.26 29.5933 53.2697 29.3745 53.2012 28.986Z" fill="#FDFDF7" stroke="#BDA687" stroke-miterlimit="10" stroke-linecap="square" stroke-linejoin="bevel"/>
<path d="M74.0692 34.4419L85.2601 57.2952H62.8789L74.0692 34.4419Z" fill="#FDFDF7" stroke="#BDA687" stroke-miterlimit="10" stroke-linecap="square" stroke-linejoin="bevel"/>
<path d="M85.2602 57.2952H62.8936C64.4542 61.9788 68.8705 65.3576 74.079 65.3576C79.2869 65.3576 83.6996 61.9806 85.2602 57.297V57.2952Z" fill="#BDA687" stroke="#BDA687" stroke-miterlimit="10" stroke-linecap="square" stroke-linejoin="bevel"/>
</g>
<defs>
<clipPath id="clip0_862_208">
<path d="M0 50C0 22.3858 22.3858 0 50 0V0C77.6142 0 100 22.3858 100 50V50C100 77.6142 77.6142 100 50 100V100C22.3858 100 0 77.6142 0 50V50Z" fill="white"/>
</clipPath>
</defs>
</svg>
