<svg width="100" height="100" viewBox="0 0 100 100" fill="none" xmlns="http://www.w3.org/2000/svg">
<path d="M63.7607 22.5364V25.8952" stroke="#BDA687" stroke-miterlimit="10" stroke-linecap="square" stroke-linejoin="bevel"/>
<path d="M65.4405 24.2158H62.0811" stroke="#BDA687" stroke-miterlimit="10" stroke-linecap="square" stroke-linejoin="bevel"/>
<path d="M26.1875 66.0969V69.4563" stroke="#BDA687" stroke-miterlimit="10" stroke-linecap="square" stroke-linejoin="bevel"/>
<path d="M27.8672 67.7764H24.5078" stroke="#BDA687" stroke-miterlimit="10" stroke-linecap="square" stroke-linejoin="bevel"/>
<path d="M47.5186 24.7249C47.5186 24.7249 49.9785 24.874 49.9785 28.154H50.0616C50.0616 24.8746 52.5216 24.7249 52.5216 24.7249V24.6406C52.5216 24.6406 50.0616 24.4916 50.0616 21.2122H49.9785C49.9785 24.4916 47.5186 24.6406 47.5186 24.6406V24.7249Z" fill="#FDFDF7" stroke="#BDA687" stroke-miterlimit="10" stroke-linecap="square" stroke-linejoin="bevel"/>
<path d="M41.1389 24.6831C41.1389 24.9874 40.8923 25.234 40.588 25.234C40.2838 25.234 40.0371 24.9874 40.0371 24.6831C40.0371 24.3789 40.2838 24.1322 40.588 24.1322C40.8923 24.1322 41.1389 24.3789 41.1389 24.6831Z" fill="#BDA687"/>
<path d="M29.3826 53.2436C29.3826 53.2436 39.2862 47.1666 44.1329 36.3496L33.702 40.4945C33.702 40.4945 34.4395 33.8569 42.2365 31.4333C42.2365 31.4333 32.6486 28.2012 25.4838 36.3496C18.3189 44.4981 21.1638 50.9254 21.1638 50.9254L29.3826 53.2436Z" fill="#FDFDF7" stroke="#BDA687" stroke-miterlimit="10" stroke-linecap="square" stroke-linejoin="bevel"/>
<path d="M28.7507 54.9417L25.0628 58.7224C20.8483 55.4563 22.0004 51.1611 22.0004 51.1611L28.3519 52.9526L28.7507 54.9417Z" fill="#BDA687"/>
<path d="M29.9619 54.3502L28.7504 54.9423L25.0625 58.7229C25.0625 58.7229 24.9868 63.0684 35.5558 63.0957C35.611 60.7248 36.2292 58.4933 37.2892 56.5333L29.9619 54.3502Z" fill="#FDFDF7" stroke="#BDA687" stroke-miterlimit="10" stroke-linecap="square" stroke-linejoin="bevel"/>
<path d="M70.7919 53.2436C70.7919 53.2436 60.8877 47.1666 56.041 36.3496L66.4719 40.4945C66.4719 40.4945 65.7343 33.8569 57.9374 31.4333C57.9374 31.4333 67.5253 28.2012 74.6901 36.3496C81.855 44.4981 79.0101 50.9254 79.0101 50.9254L70.7919 53.2436Z" fill="#FDFDF7" stroke="#BDA687" stroke-miterlimit="10" stroke-linecap="square" stroke-linejoin="bevel"/>
<path d="M71.4238 54.9417L75.1117 58.7224C79.3262 55.4563 78.1741 51.1611 78.1741 51.1611L71.8226 52.9526L71.4238 54.9417Z" fill="#BDA687"/>
<path d="M75.1114 58.7223L71.4235 54.9417L70.212 54.3496L62.8848 56.532C63.9442 58.492 64.5629 60.7236 64.6181 63.0945C75.1872 63.0684 75.1114 58.7223 75.1114 58.7223Z" fill="#FDFDF7" stroke="#BDA687" stroke-miterlimit="10" stroke-linecap="square" stroke-linejoin="bevel"/>
<path d="M29.4111 76.3484L37.5857 68.7794C36.4905 67.3042 35.7384 65.7115 35.5875 64.0454C34.4311 65.5078 30.7372 70.5145 29.4111 76.3484Z" fill="#BDA687"/>
<path d="M38.1866 69.5393C37.006 71.192 35.0648 74.2963 34.2666 77.8066L40.5884 71.9526C39.7211 71.1993 38.9036 70.392 38.1866 69.5393Z" fill="#BDA687"/>
<path d="M39.0537 78.7945L43.7973 74.4023C43.1058 73.9333 42.404 73.4272 41.7137 72.8848C40.7895 74.2817 39.5925 76.4211 39.0537 78.7945Z" fill="#BDA687"/>
<path d="M35.5479 63.4375C35.5479 68.1932 40.6478 72.4156 44.8066 75.0684C48.0309 77.1247 52.1448 77.1247 55.3691 75.0684C59.5278 72.4156 64.6279 68.1932 64.6279 63.4375C64.6279 55.4072 58.1182 48.8975 50.0879 48.8975C42.0575 48.8975 35.5479 55.4072 35.5479 63.4375Z" fill="#FDFDF7" stroke="#BDA687" stroke-miterlimit="10" stroke-linecap="square" stroke-linejoin="bevel"/>
<path d="M70.7634 76.3484L62.5889 68.7794C63.6846 67.3042 64.4361 65.7115 64.587 64.0454C65.7434 65.5078 69.4374 70.5145 70.7634 76.3484Z" fill="#BDA687"/>
<path d="M61.9868 69.5393C63.1674 71.192 65.1086 74.2963 65.9068 77.8066L59.585 71.9526C60.4522 71.1993 61.2698 70.392 61.9868 69.5393Z" fill="#BDA687"/>
<path d="M61.12 78.7945L56.377 74.4023C57.0685 73.9333 57.7703 73.4272 58.4606 72.8848C59.3842 74.2817 60.5812 76.4211 61.12 78.7945Z" fill="#BDA687"/>
<path d="M52.2354 49.0569C54.7614 49.4308 57.0735 50.4563 59.0008 51.9545C57.2384 45.9605 52.636 48.7963 52.2354 49.0569Z" fill="#BDA687"/>
<path d="M47.9393 49.0569C45.4132 49.4308 43.1011 50.4563 41.1738 51.9545C42.9363 45.9605 47.5393 48.7963 47.9393 49.0569Z" fill="#BDA687"/>
</svg>
