<svg width="100" height="100" viewBox="0 0 100 100" fill="none" xmlns="http://www.w3.org/2000/svg">
<path d="M65.7393 26.8008V30.1596" stroke="#BDA687" stroke-miterlimit="10" stroke-linecap="square" stroke-linejoin="bevel"/>
<path d="M67.4184 28.4802H64.0596" stroke="#BDA687" stroke-miterlimit="10" stroke-linecap="square" stroke-linejoin="bevel"/>
<path d="M21.6797 50.103V53.4618" stroke="#BDA687" stroke-miterlimit="10" stroke-linecap="square" stroke-linejoin="bevel"/>
<path d="M23.3588 51.7825H20" stroke="#BDA687" stroke-miterlimit="10" stroke-linecap="square" stroke-linejoin="bevel"/>
<path d="M34.9307 69.8747C34.9307 69.8747 37.3907 70.0238 37.3907 73.3038H37.4737C37.4737 70.0244 39.9337 69.8747 39.9337 69.8747V69.7904C39.9337 69.7904 37.4737 69.6413 37.4737 66.3613H37.3907C37.3907 69.6407 34.9307 69.7904 34.9307 69.7904V69.8747Z" fill="#FDFDF7" stroke="#BDA687" stroke-miterlimit="10" stroke-linecap="square" stroke-linejoin="bevel"/>
<path d="M73.4827 23.9847C73.4827 24.289 73.236 24.5357 72.9318 24.5357C72.6275 24.5357 72.3809 24.289 72.3809 23.9847C72.3809 23.6805 72.6275 23.4338 72.9318 23.4338C73.236 23.4338 73.4827 23.6805 73.4827 23.9847Z" fill="#BDA687"/>
<path d="M30.0774 25.3867C29.9767 25.48 29.8755 25.5782 29.7731 25.68C23.6428 31.7994 23.1059 41.6867 28.5301 48.4394C29.2155 49.2928 29.9622 50.054 30.7707 50.6643C30.9804 50.8224 31.3295 51.1073 31.638 51.3982C32.0319 51.7697 32.0295 52.3921 31.6301 52.7582C30.0234 54.2297 28.2774 56.1909 27.8931 58.2188C27.0925 62.4437 29.7277 64.7043 29.7277 64.7043C30.1664 64.4315 32.3628 62.72 35.6095 59.7703C39.4374 56.2934 35.118 52.9176 34.1319 51.9243C35.1767 52.8734 38.0507 55.6091 40.1961 54.9461C42.7737 54.1497 47.8501 47.4855 47.8501 47.4855C42.8925 44.5673 38.5301 47.7891 36.1883 49.6097C35.5004 50.1443 34.9416 50.3328 34.4961 50.3982C33.9477 50.4788 32.9507 49.4928 32.7264 49.2443C31.8477 48.2715 30.1574 45.9794 29.8507 42.5461C29.804 41.8382 29.7974 41.1637 29.8319 40.5255C29.8543 40.2231 29.8871 39.9146 29.9325 39.5988L29.9143 39.5861C31.1368 29.3279 42.8434 29.0031 44.3846 37.0788C46.104 46.0891 53.1883 49.4594 53.1883 49.4594C60.8919 41.7558 60.8228 32.6079 55.0452 26.8303C49.2677 21.0534 37.9531 18.0618 30.0774 25.3867Z" fill="#FDFDF7" stroke="#BDA687" stroke-miterlimit="10" stroke-linecap="square" stroke-linejoin="bevel"/>
<path d="M45.6873 50.1253C45.6873 50.1253 43.9557 48.192 41.4297 48.6314" stroke="#BDA687" stroke-miterlimit="10" stroke-linecap="square" stroke-linejoin="bevel"/>
<path d="M43.4021 52.5616C43.4021 52.5616 41.6706 50.6283 39.1445 51.0677" stroke="#BDA687" stroke-miterlimit="10" stroke-linecap="square" stroke-linejoin="bevel"/>
<path d="M31.9157 62.9793C31.9157 62.9793 30.3133 60.9278 31.0612 58.3635" stroke="#BDA687" stroke-miterlimit="10" stroke-linecap="square" stroke-linejoin="bevel"/>
<path d="M34.3903 60.7386C34.3903 60.7386 32.7879 58.687 33.5358 56.1228" stroke="#BDA687" stroke-miterlimit="10" stroke-linecap="square" stroke-linejoin="bevel"/>
<path d="M45.1491 21.4599C45.1491 21.4599 39.9157 20.0799 35.1533 25.7587L45.2806 28.7193" stroke="#BDA687" stroke-miterlimit="10" stroke-linecap="square" stroke-linejoin="bevel"/>
<path d="M44.3838 37.0793C44.3838 37.0793 45.2092 33.6405 49.3359 32.1272" stroke="#BDA687" stroke-miterlimit="10" stroke-linecap="square" stroke-linejoin="bevel"/>
<path d="M54.1172 20.5036C52.8754 22.5727 47.293 21.8558 44.9463 21.4618C48.876 22.2812 52.499 24.2848 55.0457 26.8315C56.1408 27.9267 57.0299 29.1436 57.7008 30.4479L57.7014 30.4473C60.873 24.9151 56.0778 15.7576 56.0778 15.7576C56.0778 15.7576 55.6645 17.9242 54.1172 20.5036Z" fill="#BDA687"/>
<path d="M54.0127 38.1304C54.0127 38.1304 54.8618 40.1686 55.1442 41.9576C55.1442 41.9576 57.2727 39.5049 54.0127 38.1304Z" fill="#BDA687"/>
<path d="M75.54 75.0805C75.6406 74.9872 75.7418 74.889 75.8442 74.7872C81.9745 68.6678 82.5115 58.7805 77.0873 52.0278C76.4018 51.1745 75.6552 50.4132 74.8467 49.8029C74.637 49.6448 74.2879 49.3599 73.9794 49.069C73.5855 48.6975 73.5879 48.0751 73.9873 47.709C75.5939 46.2375 77.34 44.2763 77.7242 42.2484C78.5248 38.0236 75.8897 35.7629 75.8897 35.7629C75.4509 36.0357 73.2545 37.7472 70.0079 40.6969C66.18 44.1738 70.4994 47.5496 71.4854 48.5429C70.4406 47.5938 67.5667 44.8581 65.4212 45.5211C62.8436 46.3175 57.7673 52.9817 57.7673 52.9817C62.7249 55.8999 67.0873 52.6781 69.4291 50.8575C70.117 50.3229 70.6758 50.1345 71.1212 50.069C71.6697 49.9884 72.6667 50.9745 72.8909 51.2229C73.7697 52.1957 75.46 54.4878 75.7667 57.9211C75.8133 58.629 75.82 59.3036 75.7854 59.9417C75.763 60.2442 75.7303 60.5526 75.6848 60.8684L75.703 60.8811C74.4806 71.1393 62.7739 71.4641 61.2327 63.3884C59.5133 54.3781 52.4291 51.0078 52.4291 51.0078C44.7255 58.7114 44.7946 67.8593 50.5721 73.6369C56.3497 79.4138 67.6642 82.406 75.54 75.0805Z" fill="#FDFDF7" stroke="#BDA687" stroke-miterlimit="10" stroke-linecap="square" stroke-linejoin="bevel"/>
<path d="M59.9307 50.3416C59.9307 50.3416 61.6622 52.2749 64.1882 51.8355" stroke="#BDA687" stroke-miterlimit="10" stroke-linecap="square" stroke-linejoin="bevel"/>
<path d="M62.2158 47.9058C62.2158 47.9058 63.9473 49.8391 66.4734 49.3997" stroke="#BDA687" stroke-miterlimit="10" stroke-linecap="square" stroke-linejoin="bevel"/>
<path d="M73.7021 37.4883C73.7021 37.4883 75.3046 39.5398 74.5567 42.104" stroke="#BDA687" stroke-miterlimit="10" stroke-linecap="square" stroke-linejoin="bevel"/>
<path d="M71.2275 39.7288C71.2275 39.7288 72.83 41.7803 72.0821 44.3445" stroke="#BDA687" stroke-miterlimit="10" stroke-linecap="square" stroke-linejoin="bevel"/>
<path d="M60.4681 79.0077C60.4681 79.0077 65.7014 80.3877 70.4638 74.7089L60.3359 71.7483" stroke="#BDA687" stroke-miterlimit="10" stroke-linecap="square" stroke-linejoin="bevel"/>
<path d="M61.2334 63.3877C61.2334 63.3877 60.4079 66.8265 56.2812 68.3398" stroke="#BDA687" stroke-miterlimit="10" stroke-linecap="square" stroke-linejoin="bevel"/>
<path d="M51.5006 79.9643C52.7424 77.8952 58.3248 78.6121 60.6715 79.0061C56.7418 78.1867 53.1188 76.183 50.5721 73.6364C49.477 72.5412 48.5879 71.3243 47.9169 70.02L47.9164 70.0206C44.7448 75.5527 49.54 84.7103 49.54 84.7103C49.54 84.7103 49.9533 82.5436 51.5006 79.9643Z" fill="#BDA687"/>
<path d="M51.6052 62.3375C51.6052 62.3375 50.7561 60.2993 50.4736 58.5103C50.4736 58.5103 48.3452 60.9624 51.6052 62.3375Z" fill="#BDA687"/>
</svg>
