<svg width="100" height="100" viewBox="0 0 100 100" fill="none" xmlns="http://www.w3.org/2000/svg">
<path d="M38.9951 25.0039V28.3627" stroke="#BDA687" stroke-miterlimit="10" stroke-linecap="square" stroke-linejoin="bevel"/>
<path d="M40.6748 26.6833H37.3154" stroke="#BDA687" stroke-miterlimit="10" stroke-linecap="square" stroke-linejoin="bevel"/>
<path d="M29.3242 39.036C29.3242 39.036 31.7842 39.1851 31.7842 42.4651H31.8673C31.8673 39.1857 34.3272 39.036 34.3272 39.036V38.9518C34.3272 38.9518 31.8673 38.8027 31.8673 35.5227H31.7842C31.7842 38.8021 29.3242 38.9518 29.3242 38.9518V39.036Z" fill="#FDFDF7" stroke="#BDA687" stroke-miterlimit="10" stroke-linecap="square" stroke-linejoin="bevel"/>
<path d="M22.8438 39.29V42.6488" stroke="#BDA687" stroke-miterlimit="10" stroke-linecap="square" stroke-linejoin="bevel"/>
<path d="M24.5235 40.9695H21.1641" stroke="#BDA687" stroke-miterlimit="10" stroke-linecap="square" stroke-linejoin="bevel"/>
<path d="M80.3069 65.6107C80.3069 65.915 80.0602 66.1616 79.756 66.1616C79.4517 66.1616 79.2051 65.915 79.2051 65.6107C79.2051 65.3065 79.4517 65.0598 79.756 65.0598C80.0602 65.0598 80.3069 65.3065 80.3069 65.6107Z" fill="#BDA687"/>
<path d="M43.1107 78.2427C42.9519 78.1367 39.7294 76.4561 39.7294 76.4561L42.0573 74.9215L58.7797 73.3324L75.6076 73.3179H78.3949C78.3949 73.3179 79.7967 75.0961 79.6379 74.9633C79.4791 74.8312 76.0403 76.4712 76.0403 76.4712L81.0137 76.3124C81.0137 76.3124 82.9713 79.4342 83.024 79.593C83.0767 79.7518 83.024 80.387 83.024 80.387H29.8428L31.3403 78.3136H40.0028L43.1107 78.2427Z" fill="#BDA687"/>
<path d="M26.6705 56.0579C23.5014 56.7154 20.1123 57.0124 17.8378 57.1457C16.0269 57.2518 14.3032 58.23 13.0735 59.8366C11.9026 61.367 10.6196 63.2027 10.3372 64.2336C9.7917 66.2233 15.9014 62.9027 16.4426 64.3869L17.3887 63.9385C17.3887 63.9385 17.4517 61.4336 13.2438 62.9597L14.2481 61.5936C15.4553 59.9512 17.1735 58.9397 18.9923 58.7906C20.6311 58.656 22.705 58.5439 24.5038 58.6257C28.1469 58.7912 26.6705 56.0579 26.6705 56.0579Z" fill="#FDFDF7" stroke="#BDA687" stroke-miterlimit="10" stroke-linecap="square" stroke-linejoin="bevel"/>
<path d="M17.1126 63.396C17.1126 63.396 16.2308 63.9918 16.4532 65.6778C16.6756 67.3639 16.4617 68.4833 16.0156 69.133C16.0156 69.133 16.7708 69.0936 17.0635 68.0766C17.0677 68.0608 17.0726 68.0451 17.0768 68.0287C17.3593 66.9651 17.1987 68.6015 17.1987 68.6015C17.1987 68.6015 17.9447 67.9463 17.9447 66.1221C17.9447 64.2984 17.1126 63.396 17.1126 63.396Z" fill="#BDA687" stroke="#BDA687" stroke-miterlimit="10"/>
<path d="M90.7404 31.113C90.4659 30.5076 86.875 28.2839 86.875 28.2839C86.0889 27.0379 84.1574 25.8924 84.1574 25.8924C84.1574 25.8924 82.0544 20.4143 71.6865 20.6143L72.8344 22.33C72.8344 22.33 65.7429 18.5561 58.8568 22.1755C55.8016 23.7815 54.1562 25.6149 53.2695 27.1585C51.4865 27.9524 49.5332 29.1664 48.3041 30.9639C45.561 34.9761 45.0938 42.5537 45.0938 42.5537L48.6538 39.9537L44.5404 45.7034C41.1974 48.5506 38.378 49.2137 33.8077 50.3724C29.2368 51.5318 26.5216 56.0864 26.5216 56.0864C26.5216 56.0864 27.075 64.7828 23.5659 68.1446C20.0568 71.5058 19.7592 70.6009 19.7592 70.6009L18.9604 76.0391L18.6289 78.2961L19.9677 80.467H26.9677C26.9677 80.467 27.795 78.3131 25.595 78.3131C23.395 78.3131 23.141 78.2531 23.141 78.2531C23.141 78.2531 22.021 78.3943 22.6495 76.0391L23.5483 72.6652C23.5483 72.6652 26.8192 72.3918 31.4107 69.7276C36.0022 67.064 37.6138 63.4234 40.0131 62.484C42.4125 61.544 47.675 62.4379 52.2598 63.4215C53.795 63.7512 55.7386 63.8252 57.8598 63.6852L57.3162 68.9682L56.9847 71.2258L58.3235 73.3967H65.3235C65.3235 73.3967 66.1507 71.2434 63.9507 71.2434C61.7507 71.2434 61.4968 71.1828 61.4968 71.1828C61.4968 71.1828 60.3768 71.324 61.0053 68.9688L61.9041 65.5949C61.9041 65.5949 63.9574 63.9664 67.0883 61.967C70.9368 60.7943 74.3659 59.1137 76.1235 57.1276L75.0883 59.7755C75.0883 59.7755 78.3186 58.3118 79.8222 55.4094L79.5125 57.5179C79.5125 57.5179 82.0689 55.4167 82.2489 53.5046C82.4289 51.5924 83.4919 49.487 83.4919 49.487L83.0271 52.6494C83.0271 52.6494 84.6077 51.0294 84.8925 48.1888C88.0459 45.7658 86.2944 39.5591 86.7113 39.85C87.1507 40.1567 88.2834 40.9694 88.2834 40.9694C90.2489 38.31 88.9035 35.6488 88.9035 35.6488L89.7695 33.8779C89.7695 33.8779 91.015 31.7185 90.7404 31.113Z" fill="#FDFDF7" stroke="#BDA687" stroke-miterlimit="10" stroke-linecap="square" stroke-linejoin="bevel"/>
<path d="M85.9353 29.3166C85.9353 29.3166 84.6135 27.9123 83.4492 29.4923C83.4492 29.4923 84.2983 29.3511 85.2177 29.3172C86.3419 30.0469 87.0238 30.0172 87.0238 30.0172L85.9353 29.3166Z" fill="#BDA687"/>
<path d="M87.7044 31.4343C87.6571 31.7549 87.6541 32.1458 88.4686 32.3416C88.7383 32.4064 89.0056 32.4919 89.2632 32.5943L90.1729 32.9567" fill="#FDFDF7"/>
<path d="M87.7044 31.4343C87.6571 31.7549 87.6541 32.1458 88.4686 32.3416C88.7383 32.4064 89.0056 32.4919 89.2632 32.5943L90.1729 32.9567" stroke="#BDA687" stroke-miterlimit="10" stroke-linecap="square" stroke-linejoin="bevel"/>
<path d="M40.0119 62.484C39.8452 62.5489 39.6834 62.6301 39.5228 62.7198C40.067 63.9489 41.0646 68.5083 38.9834 70.9483C36.9016 73.3889 34.501 74.7052 34.501 74.7052L36.3137 78.3101L40.0016 78.3131L39.3186 74.7125C39.3186 74.7125 46.4683 70.2168 47.5701 67.8477C48.2943 66.2913 48.7846 64.1028 49.0373 62.7804C45.4089 62.1252 41.8604 61.7598 40.0119 62.484Z" fill="#BDA687"/>
<path d="M77.624 30.533C79.0253 28.5506 78.7095 26.6803 78.7095 26.6803C81.538 25.5615 84.1574 25.8924 84.1574 25.8924C84.1574 25.8924 82.0543 20.4142 71.6865 20.6142L72.8343 22.33C72.8343 22.33 65.7428 18.5567 58.8568 22.1754C55.8016 23.7815 54.1562 25.6148 53.2695 27.1585C51.4865 27.9524 49.5331 29.1663 48.3041 30.9639C45.561 34.976 45.0938 42.5536 45.0938 42.5536L48.6537 39.9536C48.6537 39.9536 47.7786 47.0039 54.8804 50.7082L55.0162 48.3197C55.0162 48.3197 55.1992 51.4694 57.618 53.3324L59.961 47.6457C59.961 47.6457 63.9295 46.29 65.6356 53.0027C67.3362 59.693 76.1216 57.1276 76.1216 57.1276L75.0865 59.7754C75.0865 59.7754 78.3168 58.3118 79.8204 55.4094L79.5107 57.5179C79.5107 57.5179 82.0671 55.4166 82.2471 53.5045C82.4271 51.5924 83.4901 49.487 83.4901 49.487L83.0253 52.6494C83.0253 52.6494 84.6059 51.0294 84.8907 48.1888C88.044 45.7657 86.2925 39.5591 86.7095 39.85C86.7095 39.85 84.521 37.4688 82.2774 37.4627C80.0355 37.4554 73.1943 36.8021 77.624 30.533Z" fill="#BDA687"/>
<path d="M67.3516 61.8847L74.6861 73.4726L78.1122 73.4701L72.9534 59.5459C71.3485 60.4495 69.417 61.238 67.357 61.8817L67.3516 61.8847Z" fill="#BDA687"/>
<path d="M46.3479 59.5459C39.5097 60.0538 38.5752 63.3962 38.5752 63.3962L38.5764 63.398C39.0437 62.9992 39.5103 62.6798 40.0122 62.4835C40.4455 62.3138 40.9752 62.2053 41.5746 62.1453C43.1116 60.3047 46.3479 59.5459 46.3479 59.5459Z" fill="#BDA687" stroke="#BDA687" stroke-miterlimit="10" stroke-linecap="square" stroke-linejoin="bevel"/>
<path d="M57.8594 63.6852L58.5351 60.4731C58.5351 60.4731 63.7079 57.8107 63.7957 54.7422" fill="#FDFDF7"/>
<path d="M57.8594 63.6852L58.5351 60.4731C58.5351 60.4731 63.7079 57.8107 63.7957 54.7422" stroke="#BDA687" stroke-miterlimit="10" stroke-linecap="square" stroke-linejoin="bevel"/>
</svg>
