<svg width="100" height="100" viewBox="0 0 100 100" fill="none" xmlns="http://www.w3.org/2000/svg">
<path d="M69.1338 30.2516V33.611" stroke="#BDA687" stroke-miterlimit="10" stroke-linecap="square" stroke-linejoin="bevel"/>
<path d="M70.8135 31.9316H67.4541" stroke="#BDA687" stroke-miterlimit="10" stroke-linecap="square" stroke-linejoin="bevel"/>
<path d="M55.8691 24.7255C55.8691 24.7255 58.3292 24.8746 58.3292 28.1546H58.4122C58.4122 24.8746 60.8722 24.7255 60.8722 24.7255V24.6412C60.8722 24.6412 58.4122 24.4922 58.4122 21.2122H58.3292C58.3292 24.4916 55.8691 24.6412 55.8691 24.6412V24.7255Z" fill="#FDFDF7" stroke="#BDA687" stroke-miterlimit="10" stroke-linecap="square" stroke-linejoin="bevel"/>
<path d="M44.3848 28.5721V31.9315" stroke="#BDA687" stroke-miterlimit="10" stroke-linecap="square" stroke-linejoin="bevel"/>
<path d="M46.0645 30.2516H42.7051" stroke="#BDA687" stroke-miterlimit="10" stroke-linecap="square" stroke-linejoin="bevel"/>
<path d="M33.9104 71.2194C33.9104 71.5236 33.6637 71.7703 33.3595 71.7703C33.0553 71.7703 32.8086 71.5236 32.8086 71.2194C32.8086 70.9151 33.0553 70.6685 33.3595 70.6685C33.6637 70.6685 33.9104 70.9151 33.9104 71.2194Z" fill="#BDA687"/>
<path d="M75.6297 68.2811C74.8982 64.026 75.1837 61.5999 77.5085 58.0866C80.4546 53.6339 78.2358 51.5024 76.5794 49.183C74.4346 46.1787 72.5522 43.2545 70.9503 40.7199C70.6085 40.1793 70.1388 39.6078 69.5994 39.0351C65.7885 34.9866 59.2594 32.0781 53.0461 35.8133C45.6576 40.2551 44.1219 52.5454 47.4389 60.369C50.7928 68.2805 53.9661 70.789 59.6225 74.0842C70.9322 80.6727 76.6758 74.366 75.6297 68.2811Z" fill="#FDFDF7" stroke="#BDA687" stroke-miterlimit="10" stroke-linecap="square" stroke-linejoin="bevel"/>
<path d="M25.1045 45.7272C25.1045 45.7272 23.3463 51.3738 23.0166 57.5363L26.2039 56.4357L28.2918 66.229C28.2918 66.229 36.2045 70.2654 42.6881 55.9781L36.5336 45.7272H25.1045Z" fill="#FDFDF7" stroke="#BDA687" stroke-miterlimit="10" stroke-linecap="square" stroke-linejoin="bevel"/>
<path d="M25.058 45.7272C25.058 45.7272 21.2119 45.872 21.2119 41.5805C21.2119 37.289 25.9374 35.9684 29.564 38.9393C29.9949 39.2926 30.2998 39.6435 30.504 39.9841C31.501 39.5611 32.5877 38.9526 33.7398 38.0666C40.3337 32.9969 42.6416 38.0666 42.6416 38.0666C42.6416 38.0666 49.4392 34.9775 51.4252 42.6805C51.4252 42.6805 52.6422 50.7884 42.6416 55.9781L36.4871 45.7272H25.058Z" fill="#FDFDF7" stroke="#BDA687" stroke-miterlimit="10" stroke-linecap="square" stroke-linejoin="bevel"/>
<path d="M37.2643 40.6381C37.2643 40.6381 36.3528 42.6278 36.474 43.8853C36.4897 44.049 36.5825 44.2308 36.7104 44.4102C37.1916 45.0835 38.2079 44.9696 38.5407 44.212C38.6346 43.9975 38.691 43.7872 38.6685 43.612C38.5116 42.3593 37.2643 40.6381 37.2643 40.6381Z" fill="#BDA687"/>
<path d="M34.8564 48.2156C34.8564 48.2156 35.2607 46.0641 36.0855 45.1083C36.1928 44.9841 36.3734 44.8889 36.5819 44.8168C37.3631 44.5459 38.1274 45.2265 37.9613 46.0374C37.9146 46.2665 37.8389 46.4708 37.7195 46.6011C36.868 47.5326 34.8564 48.2156 34.8564 48.2156Z" fill="#BDA687"/>
<path d="M39.8652 41.3326C39.8652 41.3326 39.1804 43.412 39.441 44.6478C39.4749 44.8084 39.5871 44.9787 39.7343 45.1429C40.2871 45.7581 41.2852 45.532 41.5313 44.7417C41.601 44.5181 41.6331 44.3029 41.5919 44.1314C41.2962 42.9042 39.8652 41.3326 39.8652 41.3326Z" fill="#BDA687"/>
<path d="M38.4092 49.1513C38.4092 49.1513 38.5716 46.9683 39.2849 45.9259C39.3777 45.7901 39.5462 45.6762 39.7456 45.581C40.4916 45.2247 41.3268 45.8162 41.2522 46.6404C41.231 46.8738 41.1789 47.0847 41.0746 47.2277C40.3322 48.2483 38.4092 49.1513 38.4092 49.1513Z" fill="#BDA687"/>
<path d="M42.2213 41.5853C42.2213 41.5853 41.8528 43.7435 42.2941 44.9265C42.3516 45.0805 42.4874 45.2326 42.6577 45.3726C43.2959 45.8987 44.2486 45.5265 44.3753 44.7084C44.411 44.4768 44.411 44.2593 44.3444 44.0956C43.8692 42.9259 42.2213 41.5853 42.2213 41.5853Z" fill="#BDA687"/>
<path d="M41.9417 49.5338C41.9417 49.5338 41.778 47.3507 42.3289 46.2138C42.4005 46.0659 42.5508 45.9277 42.7332 45.8041C43.418 45.3404 44.332 45.801 44.3804 46.6271C44.3944 46.861 44.3738 47.0774 44.292 47.2344C43.7089 48.3544 41.9417 49.5338 41.9417 49.5338Z" fill="#BDA687"/>
<path d="M44.8796 41.3278C44.8796 41.3278 44.8086 43.5156 45.4068 44.6284C45.4844 44.7732 45.6402 44.9047 45.828 45.0205C46.5317 45.4544 47.425 44.9556 47.439 44.1284C47.4426 43.8944 47.4135 43.6787 47.325 43.5253C46.6953 42.4314 44.8796 41.3278 44.8796 41.3278Z" fill="#BDA687"/>
<path d="M45.6851 49.2411C45.6851 49.2411 45.2257 47.1005 45.6166 45.8992C45.6675 45.7429 45.7972 45.5853 45.9614 45.438C46.5766 44.8853 47.5445 45.2168 47.7057 46.0289C47.7511 46.2586 47.7602 46.4762 47.7008 46.6423C47.2748 47.8314 45.6851 49.2411 45.6851 49.2411Z" fill="#BDA687"/>
<path d="M46.9043 40.7253C46.9043 40.7253 47.2988 42.8787 48.1201 43.8381C48.2267 43.9629 48.4067 44.0587 48.6146 44.132C49.3946 44.4066 50.1619 43.729 49.9994 42.9169C49.9534 42.6872 49.8788 42.4829 49.7601 42.352C48.9128 41.4175 46.9043 40.7253 46.9043 40.7253Z" fill="#BDA687"/>
<path d="M49.3706 48.2859C49.3706 48.2859 48.4675 46.292 48.5942 45.035C48.6106 44.8714 48.7039 44.6902 48.833 44.5108C49.3172 43.8399 50.333 43.958 50.6627 44.7168C50.756 44.9314 50.8112 45.1423 50.7881 45.3174C50.6251 46.5702 49.3706 48.2859 49.3706 48.2859Z" fill="#BDA687"/>
<path d="M32.0693 42.829C32.0693 42.829 33.4233 44.5478 34.5966 45.0126C34.7493 45.0732 34.953 45.0733 35.1712 45.0405C35.9887 44.9181 36.3506 43.9605 35.8287 43.3187C35.6809 43.1375 35.5196 42.9914 35.3536 42.9314C34.1675 42.5011 32.0693 42.829 32.0693 42.829Z" fill="#BDA687"/>
<path d="M36.0156 44.3386C36.0156 44.3386 44.1968 48.081 51.3987 42.8883" stroke="#BDA687" stroke-miterlimit="10" stroke-linecap="square" stroke-linejoin="bevel"/>
<path d="M26.8316 59.3835C26.8316 59.3835 29.3359 57.5363 31.9856 58.9666C34.6353 60.3969 39.3607 59.2969 38.0419 55.115C36.7231 50.9332 31.8189 52.9344 32.6637 55.9781C32.6637 55.9781 30.3559 54.9847 26.2031 56.4357L26.8316 59.3835Z" fill="#FDFDF7" stroke="#BDA687" stroke-miterlimit="10" stroke-linecap="square" stroke-linejoin="bevel"/>
<path d="M26.2031 56.4362C26.3898 56.3726 30.1153 55.1083 32.6637 55.9786C33.8662 56.3889 34.654 56.9799 35.151 57.4895" stroke="#BDA687" stroke-miterlimit="10" stroke-linecap="square" stroke-linejoin="bevel"/>
<path d="M26.625 50.9908C26.9147 51.0441 28.665 52.8599 30.7159 50.4666" stroke="#BDA687" stroke-miterlimit="10" stroke-linecap="square" stroke-linejoin="bevel"/>
<path d="M42.6765 55.9593L42.688 55.9787C41.0474 59.5944 39.3153 62.035 37.6426 63.6659V63.6665C37.702 63.8805 37.7565 64.0962 37.8074 64.3126C38.5135 67.3229 39.448 72.909 38.402 78.4447C38.402 78.4447 43.4208 75.4738 48.128 73.9884V51.8259C46.8505 53.2702 45.0941 54.6999 42.6765 55.9593Z" fill="#FDFDF7" stroke="#BDA687" stroke-miterlimit="10" stroke-linecap="square" stroke-linejoin="bevel"/>
<path d="M37.6426 63.6659C37.7014 63.8804 37.7565 64.0956 37.8074 64.312C38.0529 65.3586 38.3244 66.7217 38.5323 68.2811C42.4359 63.4283 42.688 55.978 42.688 55.978C41.0468 59.5938 39.3147 62.0344 37.6426 63.6659Z" fill="#BDA687"/>
<path d="M55.9287 56.2085C62.4123 70.4963 70.253 66.3024 70.253 66.3024L72.3408 56.5091L75.5281 57.6097C75.1984 51.4473 73.4402 45.8006 73.4402 45.8006L74.1172 45.5485C74.1172 45.5485 78.5299 43.5642 77.9578 40.3782C77.2984 36.7054 74.1045 35.7564 68.9808 39.0133C68.2245 39.4939 67.1784 39.9218 65.9402 39.9891" fill="#FDFDF7"/>
<path d="M55.9287 56.2085C62.4123 70.4963 70.253 66.3024 70.253 66.3024L72.3408 56.5091L75.5281 57.6097C75.1984 51.4473 73.4402 45.8006 73.4402 45.8006L74.1172 45.5485C74.1172 45.5485 78.5299 43.5642 77.9578 40.3782C77.2984 36.7054 74.1045 35.7564 68.9808 39.0133C68.2245 39.4939 67.1784 39.9218 65.9402 39.9891" stroke="#BDA687" stroke-miterlimit="10" stroke-linecap="square" stroke-linejoin="bevel"/>
<path d="M71.2695 61.5084C71.2695 61.5084 67.8944 60.649 66.4932 59.5618Z" fill="#FDFDF7"/>
<path d="M71.2695 61.5084C71.2695 61.5084 67.8944 60.649 66.4932 59.5618" stroke="#BDA687" stroke-miterlimit="10" stroke-linecap="square" stroke-linejoin="bevel"/>
<path d="M71.9718 50.9908C71.7566 51.192 69.9318 52.8599 67.8809 50.4666" stroke="#BDA687" stroke-miterlimit="10" stroke-linecap="square" stroke-linejoin="bevel"/>
<path d="M55.9087 55.9788C57.5493 59.5945 59.2815 62.0351 60.9542 63.666V63.6667C60.8948 63.8806 60.8403 64.0963 60.7893 64.3127C60.0833 67.323 59.1488 72.9091 60.1948 78.4448C60.1948 78.4448 55.176 75.4739 50.4688 73.9885V54.2915" fill="#FDFDF7"/>
<path d="M55.9087 55.9788C57.5493 59.5945 59.2815 62.0351 60.9542 63.666V63.6667C60.8948 63.8806 60.8403 64.0963 60.7893 64.3127C60.0833 67.323 59.1488 72.9091 60.1948 78.4448C60.1948 78.4448 55.176 75.4739 50.4688 73.9885V54.2915" stroke="#BDA687" stroke-miterlimit="10" stroke-linecap="square" stroke-linejoin="bevel"/>
<path d="M60.9537 63.666C60.8949 63.8806 60.8397 64.0957 60.7888 64.3121C60.5434 65.3588 60.2718 66.7218 60.064 68.2812C56.1603 63.4285 55.9082 55.9781 55.9082 55.9781C57.5494 59.5939 59.2815 62.0345 60.9537 63.666Z" fill="#BDA687"/>
<path d="M67.8802 50.1502L65.0244 49.9163C65.0244 49.9163 66.1129 50.8641 68.5959 51.4157L67.8802 50.1502Z" fill="#BDA687"/>
<path d="M61.0166 43.7296C61.0166 43.7296 63.2451 41.4115 66.8105 43.4139C69.2008 44.7563 71.9711 44.0715 72.5524 42.8884" fill="#FDFDF7"/>
<path d="M61.0166 43.7296C61.0166 43.7296 63.2451 41.4115 66.8105 43.4139C69.2008 44.7563 71.9711 44.0715 72.5524 42.8884" stroke="#BDA687" stroke-miterlimit="10" stroke-linecap="square" stroke-linejoin="bevel"/>
<path d="M48.2656 54.9527C48.2656 54.9527 50.6759 52.7345 54.0559 55.0382C56.3214 56.5824 59.1644 55.9273 59.8462 54.7988" stroke="#BDA687" stroke-miterlimit="10" stroke-linecap="square" stroke-linejoin="bevel"/>
<path d="M58.3701 44.6115C58.3701 44.6115 59.7744 42.6151 62.6071 44.9036C64.5059 46.4375 66.4768 46.0648 66.7841 44.9891" fill="#FDFDF7"/>
<path d="M58.3701 44.6115C58.3701 44.6115 59.7744 42.6151 62.6071 44.9036C64.5059 46.4375 66.4768 46.0648 66.7841 44.9891" stroke="#BDA687" stroke-miterlimit="10" stroke-linecap="square" stroke-linejoin="bevel"/>
</svg>
